<?xml version='1.0' encoding='iso-8859-1'?>
<!DOCTYPE svg PUBLIC '-//W3C//DTD SVG 1.1//EN' 'http://www.w3.org/Graphics/SVG/1.1/DTD/svg11.dtd'>
<svg version="1.1" xmlns="http://www.w3.org/2000/svg" viewBox="0 0 474.635 474.635" xmlns:xlink="http://www.w3.org/1999/xlink" enable-background="new 0 0 474.635 474.635">
  <path d="m328.407,127.256l18.997-38.177 37.749-13.448c8.066-2.874 14.531-8.716 18.203-16.451 3.671-7.735 4.111-16.437 1.237-24.503-2.873-8.066-8.716-14.53-16.451-18.202-5.017-2.381-10.433-3.403-15.832-3.043-8.11-11.351-23.075-16.478-36.85-11.57-16.651,5.932-25.371,24.304-19.439,40.954l13.377,37.552-18.412,37.001c-22.252-10.926-47.258-17.074-73.676-17.074-26.419,0-51.427,6.148-73.68,17.076l-18.408-37.008 13.376-37.547c5.932-16.651-2.788-35.023-19.439-40.955-13.783-4.91-28.74,0.218-36.85,11.57-5.393-0.36-10.816,0.663-15.832,3.043-7.734,3.672-13.577,10.136-16.45,18.202-5.932,16.651 2.788,35.023 19.439,40.955l37.756,13.45 18.989,38.176c-46.085,29.927-76.632,81.845-76.632,140.77 0,65.263 37.469,121.933 92.022,149.645l-21.146,42.507c-2.46,4.945-0.445,10.948 4.499,13.407 1.431,0.712 2.95,1.049 4.446,1.049 3.676,0 7.213-2.034 8.961-5.548l21.605-43.429c17.9,6.532 37.213,10.1 57.344,10.1 20.134,0 39.45-3.569 57.351-10.102l21.602,43.431c1.749,3.515 5.286,5.549 8.962,5.549 1.496,0 3.016-0.337 4.445-1.049 4.945-2.459 6.96-8.462 4.501-13.407l-21.145-42.512c54.548-27.713 92.014-84.382 92.014-149.641 0.001-58.926-30.547-110.845-76.633-140.771zm13.765-106.554c1.333-0.475 2.694-0.7 4.034-0.7 4.957,0 9.613,3.082 11.369,8.011 0.89,2.498 2.736,4.541 5.132,5.678 2.396,1.137 5.146,1.276 7.645,0.386 3.03-1.081 6.305-0.916 9.215,0.465 2.909,1.381 5.106,3.812 6.188,6.846 1.08,3.033 0.915,6.306-0.466,9.215-1.381,2.909-3.813,5.106-6.846,6.187l-32.134,11.447-11.447-32.134c-2.231-6.261 1.048-13.17 7.31-15.401zm-253.305,20.686c1.081-3.034 3.278-5.465 6.188-6.846 1.641-0.779 3.396-1.171 5.16-1.171 1.363,0 2.731,0.234 4.055,0.706 2.497,0.89 5.248,0.751 7.644-0.386 2.396-1.137 4.242-3.18 5.132-5.678 2.232-6.263 9.14-9.542 15.403-7.311 6.262,2.231 9.541,9.14 7.311,15.403l-11.447,32.134-32.135-11.448c-6.262-2.231-9.542-9.141-7.311-15.403zm292.184,192.499l-73.691,.229-5.748-19.618 73.302-.228c2.485,6.339 4.54,12.89 6.137,19.617zm3.99,34.14c0,1.836-0.045,3.661-0.112,5.481l-65.967,.199-5.746-19.609 71.144-.221c0.445,4.659 0.681,9.377 0.681,14.15zm-7.061,45.135l-47.416,.145-5.748-19.617 58.017-.175c-1.172,6.715-2.803,13.273-4.853,19.647zm-82.223-118.645l-5.749-19.618 61.735-.193c5.019,6.143 9.556,12.692 13.549,19.596l-69.535,.215zm-11.604-39.601l-8.677-29.612c21.075,5.641 40.306,15.835 56.571,29.462l-47.894,.15zm-30.727-33.738l76.685,261.702c-5.363,4.342-11.033,8.318-16.975,11.886l-80.404-274.393c1.521-0.047 3.046-0.078 4.579-0.078 5.445,0.001 10.82,0.306 16.115,0.883zm23.019,289.308l-83.084-283.516c6.208-1.938 12.594-3.468 19.121-4.577l82.524,281.629c-5.995,2.552-12.194,4.713-18.561,6.464zm-39.76,5.264l-79.62-271.702c5.613-3.645 11.488-6.917 17.59-9.787l82.116,280.213c-6.37,0.842-12.865,1.283-19.462,1.283-0.208,0.001-0.415-0.006-0.624-0.007zm-79.904-23.932l5.373-18.339 7.589,25.897c-4.458-2.302-8.781-4.829-12.962-7.558zm-32.524-218.774c4.838-5.75 10.104-11.127 15.752-16.081l75.359,257.163c-7.508-1.123-14.834-2.807-21.932-5.019l-69.179-236.063zm6.826,94.407l-21.765,74.285c-5.023-8.688-9.18-17.935-12.368-27.618l23.904-81.571 10.229,34.904zm-21.542-73.51l.893,3.046-20.853,71.16c0-0.04-0.001-0.08-0.001-0.12-0.001-26.982 7.275-52.293 19.961-74.086zm14.47,168.777l17.493-59.705 10.229,34.904-11.993,40.933c-5.641-4.971-10.9-10.364-15.729-16.132zm222.432,4.775l-10.023-34.204 33.449-.102c-6.188,12.537-14.097,24.079-23.426,34.306z"/>
</svg>
