<?xml version="1.0" encoding="iso-8859-1"?>
<!-- Generator: Adobe Illustrator 19.0.0, SVG Export Plug-In . SVG Version: 6.00 Build 0)  -->
<svg version="1.1" id="Capa_1" xmlns="http://www.w3.org/2000/svg" xmlns:xlink="http://www.w3.org/1999/xlink" x="0px" y="0px"
	 viewBox="0 0 479 479" style="enable-background:new 0 0 479 479;" xml:space="preserve">
<g>
	<path d="M408.852,70.148C363.616,24.913,303.473,0,239.5,0S115.384,24.913,70.148,70.148C24.913,115.384,0,175.527,0,239.5
		s24.913,124.116,70.148,169.352C115.384,454.087,175.527,479,239.5,479s124.116-24.913,169.352-70.148
		C454.087,363.616,479,303.473,479,239.5S454.087,115.384,408.852,70.148z M398.246,398.246C355.843,440.648,299.466,464,239.5,464
		s-116.343-23.352-158.746-65.754C38.352,355.843,15,299.466,15,239.5S38.352,123.157,80.754,80.754
		C123.157,38.352,179.534,15,239.5,15s116.343,23.352,158.746,65.754C440.648,123.157,464,179.534,464,239.5
		S440.648,355.843,398.246,398.246z"/>
	<path d="M239.5,32C125.084,32,32,125.084,32,239.5S125.084,447,239.5,447S447,353.916,447,239.5S353.916,32,239.5,32z M239.5,432
		C133.355,432,47,345.645,47,239.5S133.355,47,239.5,47S432,133.355,432,239.5S345.645,432,239.5,432z"/>
	<path d="M277.724,83.578c7.789,1.903,15.497,4.417,22.907,7.472c0.936,0.386,1.903,0.568,2.856,0.568
		c2.947,0,5.744-1.749,6.937-4.643c1.579-3.83-0.246-8.214-4.075-9.792c-8.109-3.344-16.542-6.094-25.065-8.176
		c-4.025-0.982-8.083,1.482-9.065,5.506C271.235,78.536,273.7,82.595,277.724,83.578z"/>
	<path d="M107.759,331.203c-2.37-3.397-7.045-4.229-10.442-1.86c-3.397,2.37-4.23,7.045-1.86,10.442
		c3.215,4.609,6.691,9.115,10.331,13.391c1.483,1.743,3.592,2.639,5.715,2.639c1.719,0,3.446-0.587,4.857-1.789
		c3.154-2.685,3.535-7.418,0.851-10.572C113.88,339.542,110.701,335.42,107.759,331.203z"/>
	<path d="M239.5,400c-10.283,0-20.57-0.978-30.576-2.907c-26.98-5.203-52.357-17.413-73.387-35.31
		c-3.154-2.684-7.887-2.304-10.572,0.851c-2.685,3.154-2.304,7.888,0.851,10.572c22.996,19.571,50.752,32.924,80.269,38.616
		C217.024,413.931,228.267,415,239.5,415c4.142,0,7.5-3.358,7.5-7.5S243.642,400,239.5,400z"/>
	<path d="M405.025,181.038c-13.311-37.687-39.449-70.028-73.601-91.066c-3.527-2.173-8.147-1.074-10.319,2.452
		s-1.075,8.146,2.452,10.319c31.242,19.246,55.151,48.825,67.324,83.29c1.088,3.08,3.981,5.004,7.072,5.004
		c0.829,0,1.672-0.139,2.498-0.43C404.356,189.228,406.404,184.943,405.025,181.038z"/>
	<path d="M279.175,210.431c4.764,2.898,10.353,4.569,16.325,4.569c17.369,0,31.5-14.131,31.5-31.5S312.869,152,295.5,152
		S264,166.131,264,183.5c0,5.972,1.671,11.561,4.569,16.325L239.5,228.894l-29.069-29.069c2.898-4.764,4.569-10.353,4.569-16.325
		c0-17.369-14.131-31.5-31.5-31.5S152,166.131,152,183.5s14.131,31.5,31.5,31.5c5.972,0,11.561-1.671,16.325-4.569l29.069,29.069
		l-29.069,29.069C195.061,265.671,189.472,264,183.5,264c-17.369,0-31.5,14.131-31.5,31.5s14.131,31.5,31.5,31.5
		s31.5-14.131,31.5-31.5c0-5.972-1.671-11.561-4.569-16.325l29.069-29.069l29.069,29.069C265.671,283.939,264,289.528,264,295.5
		c0,17.369,14.131,31.5,31.5,31.5s31.5-14.131,31.5-31.5S312.869,264,295.5,264c-5.972,0-11.561,1.671-16.325,4.569L250.106,239.5
		L279.175,210.431z M279,183.5c0-9.098,7.402-16.5,16.5-16.5s16.5,7.402,16.5,16.5s-7.402,16.5-16.5,16.5
		c-1.774,0-3.481-0.289-5.084-0.81l10.387-10.387c2.929-2.929,2.929-7.678,0-10.606c-2.929-2.929-7.678-2.929-10.606,0
		l-10.387,10.387C279.289,186.98,279,185.274,279,183.5z M183.5,200c-9.098,0-16.5-7.402-16.5-16.5s7.402-16.5,16.5-16.5
		s16.5,7.402,16.5,16.5c0,1.774-0.289,3.48-0.81,5.083l-10.387-10.387c-2.929-2.929-7.678-2.929-10.606,0
		c-2.929,2.929-2.929,7.678,0,10.606l10.387,10.387C186.981,199.711,185.274,200,183.5,200z M200,295.5
		c0,9.098-7.402,16.5-16.5,16.5s-16.5-7.402-16.5-16.5s7.402-16.5,16.5-16.5c1.774,0,3.481,0.289,5.084,0.81l-10.387,10.387
		c-2.929,2.929-2.929,7.678,0,10.606c1.464,1.464,3.384,2.197,5.303,2.197s3.839-0.732,5.303-2.197l10.387-10.387
		C199.711,292.02,200,293.726,200,295.5z M295.5,279c9.098,0,16.5,7.402,16.5,16.5s-7.402,16.5-16.5,16.5s-16.5-7.402-16.5-16.5
		c0-1.774,0.289-3.48,0.81-5.083l10.387,10.387c1.464,1.464,3.384,2.197,5.303,2.197s3.839-0.732,5.303-2.197
		c2.929-2.929,2.929-7.678,0-10.606l-10.387-10.387C292.019,279.289,293.726,279,295.5,279z"/>
</g>
<g>
</g>
<g>
</g>
<g>
</g>
<g>
</g>
<g>
</g>
<g>
</g>
<g>
</g>
<g>
</g>
<g>
</g>
<g>
</g>
<g>
</g>
<g>
</g>
<g>
</g>
<g>
</g>
<g>
</g>
</svg>
