<?xml version="1.0" encoding="iso-8859-1"?>
<!-- Generator: Adobe Illustrator 18.0.0, SVG Export Plug-In . SVG Version: 6.00 Build 0)  -->
<!DOCTYPE svg PUBLIC "-//W3C//DTD SVG 1.1//EN" "http://www.w3.org/Graphics/SVG/1.1/DTD/svg11.dtd">
<svg version="1.1" id="Capa_1" xmlns="http://www.w3.org/2000/svg" xmlns:xlink="http://www.w3.org/1999/xlink" x="0px" y="0px"
	 viewBox="0 0 493.709 493.709" style="enable-background:new 0 0 493.709 493.709;" xml:space="preserve">
<g id="XMLID_163_">
	<path id="XMLID_168_" d="M135.193,96.288c26.606,0,48.168-21.549,48.168-48.141C183.361,21.546,161.8,0,135.193,0
		c-26.595,0-48.131,21.546-48.131,48.147C87.063,74.739,108.599,96.288,135.193,96.288z"/>
	<path id="XMLID_164_" d="M480.427,81.359c-8.383-7.005-19.033-5.35-31.195-5.35c-7.929,0-14.366-6.433-14.366-14.365v-23.39
		c0-2.486-2.013-4.506-4.502-4.506h-37.259c-2.496,0-4.504,2.02-4.504,4.506v23.39c0,7.933-6.436,14.365-14.371,14.365
		c-12.419,0-23.064-1.694-31.525,5.64c-7.886,6.822-11.281,18.854-6.338,29.792l12.064,26.844
		c-2.557,4.744-4.136,10.104-4.136,15.879c0,14.267,8.895,26.39,21.394,31.313c0.809,4.496,1.402,9.008,1.677,13.554
		c-20.013-7.094-35.905,9.918-46.962,27.945c-12.852,20.994-26.863,33.338-41.663,36.687c-1.915,0.448-3.751,0.65-5.488,0.778
		l9.684-32.111l0.129,0.025c1.243,0.224,2.478,0.33,3.701,0.33c9.764,0,18.435-6.968,20.238-16.91
		c1.768-9.642-3.719-18.587-12.371-22.272l21.94-72.835c0.307-1.043-0.287-2.153-1.315-2.46c-0.967-0.299-1.994,0.209-2.398,1.117
		l-29.776,71.171l-44.276-8.059l-44.833-67.421c-3.879-5.839-10.247-8.673-16.745-8.817l-84.043-0.217
		c-7.672,0.144-14.959,4.434-18.335,11.882L6.189,268.287c-4.728,10.344-0.178,22.56,10.168,27.283
		c10.523,4.769,22.648,0.031,27.286-10.184l21.376-46.855l-18.422,86.725c-0.673,3.164,0.13,6.469,2.161,8.985
		c2.043,2.511,5.096,3.973,8.345,3.973h19.664v130.782c0,13.65,11.067,24.712,24.71,24.712c13.637,0,24.704-11.062,24.704-24.712
		V338.215h18.019v130.782c0,13.65,11.073,24.712,24.71,24.712c13.643,0,24.711-11.062,24.711-24.712V338.215h19.645
		c3.25,0,6.308-1.462,8.352-3.973c2.024-2.517,2.826-5.821,2.154-8.985l-28.425-133.813l14.009,21.083
		c3.104,4.665,7.961,7.859,13.468,8.864l43.982,8.002l-12.774,30.518c-6.003-2.928-23.39-12.307-35.73-29.742
		c-0.857-1.24-2.46-1.475-3.653-0.637c-1.193,0.836-1.462,2.477-0.63,3.658c13.563,19.186,32.224,28.886,37.987,31.563l-2.753,6.614
		c-2.239,5.346,0.306,11.501,5.646,13.752c5.359,2.251,11.52-0.291,13.773-5.636c0.141-0.341,0.256-0.688,0.367-1.032l2.635-8.728
		c2.563-0.056,5.281-0.256,8.242-0.939c16.199-3.669,31.336-16.82,44.979-39.07c10.07-16.447,25.017-32.851,42.564-25.038
		c0.115,12.757-1.77,25.556-5.917,37.878l-18.116,57.133c-4.758,14.149,5.906,28.686,20.467,28.686h35.263v93.013h-33.109
		c-18.599,0-18.581,28.123,0,28.123h91.372c18.598,0,18.586-28.123,0-28.123h-30.143v-93.013h34.487
		c14.48,0,25.241-14.536,20.483-28.671l-20.317-57.188c-6.242-18.51-7.514-38.111-4.186-57.029
		c12.529-4.926,21.432-17.055,21.432-31.321c0-5.818-1.609-11.214-4.203-15.983l12.133-27.044
		C492.118,99.965,488.436,88.02,480.427,81.359z M264.552,275.147c-0.953,2.701-3.945,4.109-6.613,3.126
		c-1.303-0.465-2.35-1.412-2.941-2.651c-0.582-1.247-0.643-2.671-0.179-3.967l1.688-4.736c2.173,0.949,5.646,2.074,10.07,2.574
		L264.552,275.147z M268.412,264.409c-4.568-0.37-8.074-1.545-10.138-2.453l1.659-4.553c0.966-2.687,3.928-4.095,6.614-3.131
		c1.302,0.475,2.359,1.433,2.924,2.663c0.599,1.258,0.66,2.67,0.195,3.966L268.412,264.409z"/>
</g>
<g>
</g>
<g>
</g>
<g>
</g>
<g>
</g>
<g>
</g>
<g>
</g>
<g>
</g>
<g>
</g>
<g>
</g>
<g>
</g>
<g>
</g>
<g>
</g>
<g>
</g>
<g>
</g>
<g>
</g>
</svg>
