<?xml version='1.0' encoding='iso-8859-1'?>
<!DOCTYPE svg PUBLIC '-//W3C//DTD SVG 1.1//EN' 'http://www.w3.org/Graphics/SVG/1.1/DTD/svg11.dtd'>
<svg version="1.1" xmlns="http://www.w3.org/2000/svg" viewBox="0 0 302 302" xmlns:xlink="http://www.w3.org/1999/xlink" enable-background="new 0 0 302 302">
  <path d="m298.995,197.304l-17.103-17.104 17.18-17.179c1.875-1.875 2.929-4.419 2.929-7.071 0-2.652-1.054-5.195-2.929-7.071l-17.18-17.18 16.211-16.211c3.905-3.905 3.905-10.237 0-14.143l-36.376-36.375c-3.906-3.904-10.236-3.904-14.143,0l-16.211,16.211-10.126-10.126 13.553-13.554c3.905-3.905 3.905-10.237 0-14.143l-36.376-36.375c-1.876-1.875-4.419-2.929-7.071-2.929-2.652,0-5.196,1.054-7.071,2.929l-16.21,16.211-17.18-17.179c-3.906-3.904-10.236-3.904-14.143,0l-17.179,17.179-17.591-17.592c-1.876-1.875-4.419-2.929-7.071-2.929-2.652,0-5.196,1.054-7.071,2.929l-17.179,17.18-15.799-15.799c-3.906-3.904-10.236-3.904-14.143-8.88178e-16l-36.106,36.106c-3.905,3.905-3.905,10.237 8.88178e-16,14.143l15.798,15.798-17.479,17.48c-3.905,3.905-3.905,10.237 1.33227e-15,14.143l17.591,17.591-17.149,17.148c-3.905,3.905-3.905,10.237 1.33227e-15,14.143l17.18,17.18-16.211,16.21c-3.905,3.905-3.905,10.237 0,14.143l36.376,36.376c3.906,3.904 10.236,3.904 14.143,0l16.211-16.211 10.127,10.126-13.553,13.553c-3.905,3.905-3.905,10.237 0,14.143l36.376,36.376c3.906,3.904 10.236,3.904 14.143,0l16.211-16.211 17.179,17.179c1.953,1.952 4.512,2.929 7.071,2.929 2.559,0 5.118-0.977 7.071-2.929l17.148-17.148 17.104,17.104c3.906,3.904 10.236,3.904 14.143,0l17.479-17.48 16.585,16.585c3.906,3.904 10.236,3.905 14.143,0l36.107-36.105c1.875-1.875 2.929-4.419 2.929-7.071 0-2.652-1.054-5.195-2.929-7.071l-16.586-16.585 17.18-17.18c3.903-3.907 3.903-10.239-0.003-14.144zm-44.339-111.12l22.233,22.233-13.076,13.076h-22.66v-21.806l13.503-13.503zm-152.723,132.311l-14.045-14.045 14.456-14.456h21.807v28.501h-22.218zm70.719-97.002h-28.501v-22.631l14.06-14.06 14.441,14.442v22.249zm0,20v28.501h-28.501v-28.501h28.501zm-48.501-20h-21.679l-13.346-13.346 21.964-21.964 13.061,13.061v22.249zm-22.63,20h22.63v28.501h-22.28l-14.427-14.426 14.077-14.075zm42.63,48.501h28.501v28.501h-28.501v-28.501zm48.501,0h28.501v28.501h-28.501v-28.501zm0-20v-28.501h28.501v28.501h-28.501zm0-48.501v-21.806l14.472-14.472 14.029,14.03v22.248h-28.501zm-144.865,94.737l-22.233-22.233 16.211-16.211c3.905-3.905 3.905-10.237 0-14.143l-17.18-17.18 17.148-17.148c3.905-3.905 3.905-10.237 0-14.143l-17.59-17.591 17.479-17.479c3.905-3.905 3.905-10.237 0-14.142l-15.799-15.8 21.964-21.964 15.799,15.799c1.876,1.875 4.419,2.929 7.071,2.929 2.652,0 5.196-1.054 7.071-2.929l17.179-17.18 17.592,17.592c3.906,3.904 10.236,3.904 14.143,0l17.179-17.18 17.179,17.18c1.876,1.875 4.419,2.929 7.071,2.929 2.652,0 5.196-1.054 7.071-2.929l16.21-16.211 22.233,22.233-30.714,30.751-17.591-17.592c-1.875-1.875-4.419-2.929-7.071-2.929-2.652,0-5.195,1.054-7.071,2.929l-17.18,17.18-15.797-15.798c-1.875-1.875-4.419-2.929-7.071-2.929-2.652,0-5.196,1.054-7.071,2.929l-36.106,36.106c-3.905,3.905-3.905,10.237 0,14.143l15.799,15.799-17.48,17.479c-1.875,1.875-2.929,4.419-2.929,7.071 0,2.652 1.054,5.196 2.929,7.071l17.592,17.591-36.037,36zm63.303,57.987l-22.233-22.233 13.488-13.488h21.806v22.661l-13.061,13.06zm47.532,.968l-14.472-14.472v-22.218h28.501v22.66l-14.029,14.03zm48.395-.045l-14.365-14.365v-22.279h28.501v22.509l-14.136,14.135zm48.207-.894l-14.071-14.072v-21.679h22.248l13.787,13.787-21.964,21.964zm8.438-55.751h-22.51v-28.501h22.248l14.382,14.381-14.12,14.12zm.151-48.501h-22.66v-28.501h22.248l14.457,14.457-14.045,14.044z"/>
</svg>
