<?xml version="1.0" encoding="iso-8859-1"?>
<!-- Generator: Adobe Illustrator 19.0.0, SVG Export Plug-In . SVG Version: 6.00 Build 0)  -->
<svg version="1.1" id="Capa_1" xmlns="http://www.w3.org/2000/svg" xmlns:xlink="http://www.w3.org/1999/xlink" x="0px" y="0px"
	 viewBox="0 0 410 410" style="enable-background:new 0 0 410 410;" xml:space="preserve">
<g id="XMLID_1364_">
	<path id="XMLID_1229_" d="M401.051,173.334c-10.585-8.865-26.353-7.47-35.218,3.115c-6.469,7.725-7.468,18.208-3.425,26.755
		l-37.863,43.76c-9.55-10.736-20.517-20.183-32.611-28.041l18.26-72.456c9.292-1.59,17.286-8.387,19.924-18.082
		c3.624-13.323-4.238-27.061-17.561-30.686c-13.323-3.624-27.061,4.238-30.686,17.561c-2.744,10.086,1.099,20.407,8.908,26.401
		l-16.914,67.118c-18.024-8.63-37.905-13.975-58.864-15.274V74.731c8.828-3.858,15-12.663,15-22.914c0-13.807-11.193-25-25-25
		s-25,11.193-25,25c0,10.251,6.172,19.055,15,22.914v118.774c-20.96,1.299-40.84,6.644-58.864,15.274l-16.914-67.118
		c7.809-5.994,11.652-16.314,8.908-26.401c-3.624-13.323-17.363-21.185-30.686-17.561c-13.323,3.624-21.185,17.363-17.561,30.686
		c2.637,9.695,10.632,16.493,19.924,18.082l18.259,72.456c-12.093,7.858-23.061,17.304-32.611,28.041l-37.863-43.76
		c4.043-8.548,3.044-19.03-3.425-26.755c-8.865-10.585-24.632-11.98-35.218-3.115s-11.98,24.632-3.115,35.218
		c6.693,7.992,17.32,10.741,26.682,7.795l40.381,46.67C55.306,288.709,45,319.764,45,353.183c0,7.081,0.477,14.254,1.418,21.32
		l1.155,8.68h314.854l1.155-8.68c0.941-7.066,1.418-14.239,1.418-21.32c0-33.42-10.306-64.474-27.897-90.166l40.382-46.67
		c9.362,2.946,19.989,0.197,26.682-7.795C413.031,197.966,411.636,182.199,401.051,173.334z M344.643,363.183H65.357
		c-0.237-3.339-0.357-6.682-0.357-10c0-46.715,23.004-88.153,58.273-113.599l11.723,46.52l19.395-4.888l-13.255-52.598
		c16.357-8.42,34.578-13.707,53.864-15.075v93.273h20v-93.273c19.287,1.368,37.507,6.654,53.864,15.075l-13.255,52.598l19.395,4.888
		l11.723-46.52C321.997,265.03,345,306.468,345,353.183C345,356.502,344.88,359.844,344.643,363.183z"/>
</g>
<g>
</g>
<g>
</g>
<g>
</g>
<g>
</g>
<g>
</g>
<g>
</g>
<g>
</g>
<g>
</g>
<g>
</g>
<g>
</g>
<g>
</g>
<g>
</g>
<g>
</g>
<g>
</g>
<g>
</g>
</svg>
