<?xml version="1.0" encoding="iso-8859-1"?>
<!-- Generator: Adobe Illustrator 16.0.0, SVG Export Plug-In . SVG Version: 6.00 Build 0)  -->
<!DOCTYPE svg PUBLIC "-//W3C//DTD SVG 1.1//EN" "http://www.w3.org/Graphics/SVG/1.1/DTD/svg11.dtd">
<svg version="1.1" id="Capa_1" xmlns="http://www.w3.org/2000/svg" xmlns:xlink="http://www.w3.org/1999/xlink" x="0px" y="0px"
	 width="321.188px" height="321.188px" viewBox="0 0 321.188 321.188" style="enable-background:new 0 0 321.188 321.188;"
	 xml:space="preserve">
<g>
	<path d="M188.123,111.564h26.426c1.958,0,3.55-1.585,3.55-3.541v-7.678c0-3.908-3.187-7.089-7.093-7.089h-19.35
		c-3.905,0-7.081,3.181-7.081,7.089v7.678C184.569,109.979,186.154,111.564,188.123,111.564z M191.656,100.346h19.35v4.134h-19.35
		V100.346z"/>
	<path d="M319.711,219.4l-37.871-45.807c1.146-0.945,1.304-2.629,0.358-3.779l-21.318-25.783c-0.961-1.144-2.651-1.304-3.784-0.354
		l-20.284-24.539c-1.921-2.328-5.513-4.016-8.535-4.016H114.484c-3.223,0-6.755,2.016-8.396,4.795l-9.294,15.743
		c-0.186,0.318-0.869,0.701-1.53,0.701c0,0-0.016,0-0.029,0l-8.987-1.748c-1.581-0.308-3.208-0.113-4.677,0.391
		c-0.36-0.236-0.766-0.417-1.213-0.504c-0.784-0.168-19.391-3.741-29.275,11.145c-7.853,11.829-13.04,17.464-21.261,17.464
		c-14.771,0-22.743-12.328-22.743-23.921c0-1.958-1.58-3.549-3.536-3.549c-1.963,0-3.543,1.591-3.543,3.549
		c0,15.029,10.449,31.013,29.827,31.013c12.452,0,19.675-9.346,27.169-20.64c5.541-8.341,15.141-8.729,19.599-8.399
		c-0.205,2.037,0.231,4.245,1.425,6.043l4.929,7.396c0.334,0.488,0.36,1.714,0.059,2.223l-9.229,15.604
		c-1.914,3.233-1.027,7.521,2,9.768c6.653,4.935,28.956,22.427,36.386,40.227c1.331,3.187,4.708,5.507,8.039,5.507h195.507
		c3.358,0,4.651-1.968,5.049-2.83C321.149,224.241,321.848,221.974,319.711,219.4z M79.996,176.502
		c-0.139-0.109-0.186-0.377-0.128-0.473l9.231-15.601c1.703-2.881,1.601-6.995-0.26-9.769l-4.929-7.392
		c-0.354-0.535-0.406-1.36-0.462-1.407c0.118-0.097,0.539-0.297,1.297-0.297c0.053,0,0.107,0,0.155,0.005l8.987,1.749
		c3.377,0.656,7.283-1.123,9.01-4.055l9.294-15.744c0.365-0.614,1.59-1.312,2.299-1.312h113.791c0.893,0,2.504,0.753,3.066,1.445
		l67.175,81.248H109.805C99.978,192.094,86.576,181.384,79.996,176.502z M120.193,220.839c-0.436,0-1.252-0.561-1.493-1.145
		c-1.333-3.202-3.087-6.353-5.08-9.417h189.355l8.734,10.562H120.193z"/>
	<path d="M211.001,137.41h-87.264c-2.929,0-5.317,2.386-5.317,5.317v20.375c0,2.936,2.388,5.315,5.317,5.315h87.264
		c2.929,0,5.312-2.379,5.312-5.315v-20.375C216.317,139.796,213.93,137.41,211.001,137.41z M131.396,164.87
		c0.457-1.192,1.677-2.061,3.145-2.061h15.115c1.467,0,2.688,0.869,3.145,2.061H131.396z M212.77,163.098
		c0,0.984-0.787,1.772-1.769,1.772h-54.056c-0.499-3.438-3.557-6.092-7.29-6.092H134.54c-3.724,0-6.787,2.654-7.283,6.092h-3.515
		c-0.979,0-1.769-0.788-1.769-1.772V142.72c0-0.977,0.795-1.767,1.769-1.767h87.264c0.977,0,1.769,0.79,1.769,1.767v20.378H212.77z"
		/>
</g>
<g>
</g>
<g>
</g>
<g>
</g>
<g>
</g>
<g>
</g>
<g>
</g>
<g>
</g>
<g>
</g>
<g>
</g>
<g>
</g>
<g>
</g>
<g>
</g>
<g>
</g>
<g>
</g>
<g>
</g>
</svg>
