<?xml version='1.0' encoding='iso-8859-1'?>
<!DOCTYPE svg PUBLIC '-//W3C//DTD SVG 1.1//EN' 'http://www.w3.org/Graphics/SVG/1.1/DTD/svg11.dtd'>
<svg version="1.1" xmlns="http://www.w3.org/2000/svg" viewBox="0 0 446.762 446.762" xmlns:xlink="http://www.w3.org/1999/xlink" enable-background="new 0 0 446.762 446.762">
  <path d="m424.166,81.689c8.698-8.464 13.478-19.81 13.458-31.947-0.021-12.137-4.838-23.467-13.565-31.903-8.727-8.435-20.212-12.872-32.345-12.473-12.131,0.392-23.308,5.554-31.472,14.535l-4.115,4.527-4.143-4.143c-13.076-13.081-30.465-20.285-48.963-20.285-18.498,0-35.887,7.204-48.961,20.284-13.077,13.077-20.278,30.465-20.278,48.961 0,18.503 7.202,35.894 20.278,48.971l8.806,8.807-17.751,19.527c-24.898,27.389-49.465,55.256-73.655,83.513l-24.709-24.709c-12.229-12.229-28.488-18.964-45.781-18.964s-33.552,6.735-45.781,18.964c-12.226,12.226-18.959,28.484-18.959,45.781 0,17.303 6.733,33.565 18.959,45.791l33.398,33.399c-26.439,33.125-52.302,66.645-77.47,100.468-3.001,4.033-2.542,9.667 1.073,13.16 1.929,1.864 4.436,2.81 6.952,2.81 2.199,0 4.405-0.722 6.237-2.185 32.737-26.134 65.149-52.943 97.154-80.307l31.297,31.297c1.953,1.953 4.512,2.929 7.071,2.929s5.119-0.976 7.071-2.929c3.905-3.905 3.905-10.237 0-14.143l-30.228-30.228c22.611-19.541 45.004-39.357 67.141-59.424l37.505,37.505c16.76,16.759 39.045,25.989 62.751,25.989s45.991-9.229 62.75-25.988c16.767-16.761 26-39.047 26-62.752 0-23.706-9.233-45.991-25.999-62.751l-34.121-34.121 69.685-67.811c3.4,5.822 5.221,12.462 5.221,19.383 0,10.293-4.008,19.97-11.288,27.25l-3.214,3.215c-3.905,3.905-3.904,10.237 0.001,14.142 1.953,1.952 4.511,2.928 7.07,2.928s5.119-0.977 7.072-2.93l3.213-3.214c11.056-11.056 17.145-25.755 17.145-41.391 0-12.203-3.724-23.827-10.609-33.602l6.099-5.936zm-155.964,22.385c-9.299-9.299-14.421-21.668-14.421-34.829 0-13.154 5.122-25.52 14.422-34.82 9.298-9.302 21.663-14.425 34.818-14.425 13.155,0 25.52,5.123 34.819,14.426l4.818,4.818-66.324,72.962-8.132-8.132zm-8.288,55.929l96.902-106.6 9.641,9.641-20.293,20.994c-3.838,3.971-3.73,10.302 0.241,14.14 1.941,1.876 4.446,2.81 6.949,2.81 2.616,0 5.229-1.021 7.191-3.05l41.514-42.95c3.838-3.971 3.73-10.302-0.241-14.14-3.971-3.838-10.302-3.73-14.14,0.24l-7.32,7.573-10.074-10.074 4.756-5.232c4.493-4.942 10.643-7.782 17.319-7.998 0.272-0.009 0.544-0.013 0.815-0.013 6.373,0 12.377,2.424 16.983,6.876 4.803,4.642 7.454,10.877 7.465,17.556 0.011,6.679-2.619,12.922-7.406,17.58l-122.661,119.364c-26.869,26.146-54.24,51.967-82.025,77.411l-19.884-19.884c24.385-28.508 49.157-56.62 74.268-84.244zm-190.583,122.78c-8.448-8.448-13.101-19.688-13.101-31.648 0-11.955 4.653-23.191 13.102-31.639 8.451-8.452 19.688-13.106 31.639-13.106s23.188,4.654 31.639,13.106l25.848,25.848c-19.36,22.86-38.461,45.969-57.277,69.289l-31.85-31.85zm9.227,92.505c30.552-39.157 61.967-77.797 94.086-115.757l18.083,18.083c-36.742,33.289-74.184,65.902-112.169,97.674zm275.193-157.371c12.987,12.983 20.14,30.246 20.14,48.608 0,18.362-7.152,35.625-20.141,48.608-12.982,12.982-30.246,20.131-48.609,20.131s-35.627-7.149-48.609-20.131l-36.844-36.844c27.712-25.39 55.012-51.154 81.815-77.236l17.933-17.451 34.315,34.315z"/>
</svg>
