<?xml version="1.0" encoding="iso-8859-1"?>
<!-- Generator: Adobe Illustrator 19.0.0, SVG Export Plug-In . SVG Version: 6.00 Build 0)  -->
<svg version="1.1" id="Capa_1" xmlns="http://www.w3.org/2000/svg" xmlns:xlink="http://www.w3.org/1999/xlink" x="0px" y="0px"
	 viewBox="0 0 511 511" style="enable-background:new 0 0 511 511;" xml:space="preserve">
<g>
	<path d="M255.5,0C238.131,0,224,14.131,224,31.5v88c0,0.156,0.005,0.312,0.015,0.468l24,384c0.247,3.953,3.525,7.032,7.485,7.032
		s7.238-3.079,7.485-7.032l24-384c0.01-0.156,0.015-0.312,0.015-0.468v-88C287,14.131,272.869,0,255.5,0z M272,119.266l-16.5,264
		l-16.5-264V31.5c0-9.098,7.402-16.5,16.5-16.5S272,22.402,272,31.5V119.266z"/>
	<path d="M255.5,40c-4.142,0-7.5,3.358-7.5,7.5v56c0,4.142,3.358,7.5,7.5,7.5s7.5-3.358,7.5-7.5v-56C263,43.358,259.642,40,255.5,40
		z"/>
</g>
<g>
</g>
<g>
</g>
<g>
</g>
<g>
</g>
<g>
</g>
<g>
</g>
<g>
</g>
<g>
</g>
<g>
</g>
<g>
</g>
<g>
</g>
<g>
</g>
<g>
</g>
<g>
</g>
<g>
</g>
</svg>
