<?xml version='1.0' encoding='iso-8859-1'?>
<!DOCTYPE svg PUBLIC '-//W3C//DTD SVG 1.1//EN' 'http://www.w3.org/Graphics/SVG/1.1/DTD/svg11.dtd'>
<svg version="1.1" xmlns="http://www.w3.org/2000/svg" viewBox="0 0 436 436" xmlns:xlink="http://www.w3.org/1999/xlink" enable-background="new 0 0 436 436">
  <path d="m392.186,34.139v-24.139c0-5.523-4.478-10-10-10h-98.421c-5.522,0-10,4.477-10,10v24.139c-17.919,2.218-31.839,17.528-31.839,36.037v253.824h-115.114l5.004-58h6.159c16.02,0 31.085-6.243 42.421-17.579 11.336-11.336 17.579-26.402 17.579-42.421 0-31.677-24.681-57.683-55.82-59.838l6.231-72.223c30.867-1.27 55.589-26.766 55.589-57.939 0-5.523-4.477-10-10-10s-10,4.477-10,10c0,19.55-14.842,35.693-33.849,37.769l.302-3.496c1.024-11.861-3.005-23.695-11.054-32.468-8.049-8.773-19.493-13.805-31.399-13.805-11.905,0-23.349,5.031-31.398,13.804-8.048,8.773-12.078,20.607-11.054,32.469l.326,3.781c-29.896,1.123-53.874,25.781-53.874,55.946-1.77636e-15,14.95 5.823,29.012 16.403,39.605 10.586,10.572 24.648,16.395 39.597,16.395h7.532l6.902,80h-5.434c-27.019,0-49,21.981-49,49 0,13.092 5.096,25.398 14.349,34.651 9.253,9.253 21.559,14.349 34.651,14.349h13.888l7.149,82.86c0.446,5.17 4.773,9.14 9.963,9.14s9.517-3.97 9.963-9.14l7.149-82.86h116.839v9.821c0,18.51 13.92,33.819 31.839,36.037v24.142c0,5.523 4.478,10 10,10h98.421c5.522,0 10-4.477 10-10v-24.141c17.919-2.218 31.839-17.528 31.839-36.037v-283.646c0-18.51-13.92-33.819-31.839-36.037zm-284.211,275.521l-3.766-43.66h7.533l-3.767,43.66zm70-103.66c0,10.677-4.163,20.72-11.721,28.279-7.558,7.558-17.601,11.721-28.279,11.721h-4.434l6.895-79.917c20.914,1.277 37.539,18.688 37.539,39.917zm-110-60c-9.612,0-18.655-3.745-25.455-10.537-6.8-6.808-10.545-15.851-10.545-25.463 0-19.715 15.931-35.771 35.595-35.99l6.211,71.99h-5.806zm19.669-72h10.332v14c0,5.523 4.477,10 10,10s10-4.477 10-10v-42c0-5.523-4.477-10-10-10s-10,4.477-10,10v8h-12.058l-.47-5.446c-0.551-6.386 1.532-12.505 5.866-17.229 4.334-4.724 10.251-7.325 16.661-7.325 6.411,0 12.328,2.602 16.661,7.325s6.417,10.842 5.866,17.229l-17.034,197.446h-10.984l-14.84-172zm-10.669,250c-7.75,0-15.034-3.015-20.509-8.491-5.476-5.476-8.491-12.759-8.491-20.509 0-15.991 13.009-29 29-29h7.159l5.004,58h-12.163zm327.05,.264l-142.007,31.274c-0.059-0.565-0.092-1.137-0.092-1.717v-16.398l142.099-31.294v18.135zm0-38.614l-142.099,31.294v-18.135l142.099-31.294v18.135zm0-38.615l-142.099,31.294v-18.135l142.099-31.294v18.135zm0-38.614l-142.099,31.294v-18.135l142.099-31.294v18.135zm0-38.615l-142.099,31.294v-18.135l142.099-31.294v18.135zm0-38.614l-142.099,31.294v-18.135l142.099-31.294v18.135zm0-38.615l-142.099,31.294v-18.135l142.099-31.294v18.135zm-31.839-72.577v13.852h-78.421v-13.852h78.421zm-93.936,33.852h109.45c2.823,0 5.48,0.722 7.799,1.988l-133.573,29.417v-15.081c0-9.001 7.323-16.324 16.324-16.324zm15.515,350.148v-13.854h78.421v13.854h-78.421zm93.935-33.854h-99.021l115.345-25.402v9.078c0.001,9.001-7.323,16.324-16.324,16.324z"/>
</svg>
