<?xml version="1.0" encoding="iso-8859-1"?>
<!-- Generator: Adobe Illustrator 19.0.0, SVG Export Plug-In . SVG Version: 6.00 Build 0)  -->
<svg version="1.1" id="Capa_1" xmlns="http://www.w3.org/2000/svg" xmlns:xlink="http://www.w3.org/1999/xlink" x="0px" y="0px"
	 viewBox="0 0 511 511" style="enable-background:new 0 0 511 511;" xml:space="preserve">
<path d="M487.5,332H327.492c-14.464,0-26.724-10.823-28.519-25.175l-9.784-78.271c-0.307-2.454,0.426-4.826,2.062-6.679
	c1.637-1.854,3.9-2.875,6.373-2.875H383.5c26.743,0,48.5,21.757,48.5,48.5c0,4.142,3.358,7.5,7.5,7.5h8.5v40.5
	c0,4.142,3.358,7.5,7.5,7.5s7.5-3.358,7.5-7.5V275h8.5c4.142,0,7.5-3.358,7.5-7.5v-152c0-4.142-3.358-7.5-7.5-7.5h-32
	c-4.142,0-7.5,3.358-7.5,7.5c0,13.509-10.991,24.5-24.5,24.5H239v-9h16.5c4.142,0,7.5-3.358,7.5-7.5s-3.358-7.5-7.5-7.5H255V83h0.5
	c4.142,0,7.5-3.358,7.5-7.5s-3.358-7.5-7.5-7.5h-48c-4.142,0-7.5,3.358-7.5,7.5s3.358,7.5,7.5,7.5h0.5v33h-0.5
	c-4.142,0-7.5,3.358-7.5,7.5s3.358,7.5,7.5,7.5H224v9h-16.5c-11.737,0-21.987,6.457-27.406,16H159v-24.5
	c0-12.958-10.542-23.5-23.5-23.5S112,118.542,112,131.5V172h-9v-8.5c0-4.142-3.358-7.5-7.5-7.5s-7.5,3.358-7.5,7.5v35.905
	c-4.91-6.062-9-12.136-9-19.905v-16c0-4.142-3.358-7.5-7.5-7.5h-48C10.542,156,0,166.542,0,179.5S10.542,203,23.5,203h48
	c0.149,0,0.294-0.014,0.44-0.022c2.328,3.406,4.876,6.473,7.228,9.292C83.907,217.949,88,222.854,88,227.5v24
	c0,4.142,3.358,7.5,7.5,7.5s7.5-3.358,7.5-7.5V187h9v40.5c0,12.958,10.542,23.5,23.5,23.5s23.5-10.542,23.5-23.5V203h17v112.5
	c0,9.098-7.402,16.5-16.5,16.5h-48C98.542,332,88,342.542,88,355.5v80c0,4.142,3.358,7.5,7.5,7.5h408c4.142,0,7.5-3.358,7.5-7.5v-80
	C511,342.542,500.458,332,487.5,332z M223,83h17v33h-17V83z M64,188H23.5c-4.687,0-8.5-3.813-8.5-8.5s3.813-8.5,8.5-8.5H64V188z
	 M144,227.5c0,4.687-3.813,8.5-8.5,8.5s-8.5-3.813-8.5-8.5v-96c0-4.687,3.813-8.5,8.5-8.5s8.5,3.813,8.5,8.5V227.5z M159,188v-17
	h17.013c-0.003,0.167-0.013,0.332-0.013,0.5V188H159z M191,315.5v-144c0-9.098,7.402-16.5,16.5-16.5h200
	c19.216,0,35.271-13.794,38.786-32H464v137h-17.44c-3.722-31.493-30.583-56-63.06-56h-85.875c-6.737,0-13.159,2.897-17.618,7.948
	s-6.537,11.782-5.701,18.467l9.784,78.271c1.115,8.92,4.888,16.942,10.459,23.315H186.319C189.284,327.198,191,321.546,191,315.5z
	 M103,428v-49h336.5c4.142,0,7.5-3.358,7.5-7.5s-3.358-7.5-7.5-7.5H103v-8.5c0-4.687,3.813-8.5,8.5-8.5h215.992h0.008h160
	c4.687,0,8.5,3.813,8.5,8.5v8.5h-24.5c-4.142,0-7.5,3.358-7.5,7.5s3.358,7.5,7.5,7.5H496v49H103z"/>
<g>
</g>
<g>
</g>
<g>
</g>
<g>
</g>
<g>
</g>
<g>
</g>
<g>
</g>
<g>
</g>
<g>
</g>
<g>
</g>
<g>
</g>
<g>
</g>
<g>
</g>
<g>
</g>
<g>
</g>
</svg>
