<?xml version='1.0' encoding='iso-8859-1'?>
<!DOCTYPE svg PUBLIC '-//W3C//DTD SVG 1.1//EN' 'http://www.w3.org/Graphics/SVG/1.1/DTD/svg11.dtd'>
<svg version="1.1" xmlns="http://www.w3.org/2000/svg" viewBox="0 0 418.493 418.493" xmlns:xlink="http://www.w3.org/1999/xlink" enable-background="new 0 0 418.493 418.493">
  <path d="m297.721,133.507c-1.875,1.875-2.929,4.419-2.929,7.071s1.054,5.196 2.929,7.071l28.053,28.053c1.953,1.953 4.512,2.929 7.071,2.929s5.119-0.976 7.071-2.929l58.452-58.452c26.787-26.787 26.787-70.373 0-97.161-26.788-26.787-70.374-26.787-97.161,0l-58.452,58.452c-1.875,1.875-2.929,4.419-2.929,7.071s1.054,5.196 2.929,7.071l2.435,2.435-228.982,228.983c-21.564,21.565-21.564,56.653 0,78.218 10.783,10.782 24.946,16.173 39.109,16.173 12.987,0 25.967-4.545 36.347-13.612 0.708-0.618 295.338-215.129 295.338-215.129 4.467-3.248 5.455-9.502 2.208-13.969-3.248-4.467-9.501-5.455-13.969-2.208l-264.716,192.465c0.766-15.091-4.597-30.437-16.098-41.938-9.484-9.484-21.584-14.792-33.999-15.935l198.904-198.905 11.476,11.476c3.905,3.905 10.237,3.905 14.143,0l24.992-24.992c3.521-3.521 9.25-3.521 12.771,0 3.521,3.52 3.521,9.249 0,12.77l-24.993,24.992zm-217.436,254.67c-13.767,13.768-36.167,13.768-49.934,0-13.767-13.767-13.767-36.167 0-49.933 6.883-6.884 15.925-10.325 24.967-10.325s18.083,3.441 24.967,10.325c13.767,13.766 13.767,36.166 0,49.933zm256.57-265.52c8.835-8.835 10.773-21.995 5.815-32.727l14.63-14.629c3.905-3.905 3.905-10.237 0-14.142-3.905-3.905-10.237-3.905-14.143,0l-14.629,14.629c-10.733-4.957-23.892-3.02-32.728,5.815l-17.921,17.921-13.911-13.911 51.381-51.381c18.988-18.99 49.887-18.989 68.875,0 18.989,18.989 18.989,49.887 0,68.876l-51.38,51.381-13.911-13.911 17.922-17.921z"/>
</svg>
