<?xml version="1.0" encoding="iso-8859-1"?>
<!-- Generator: Adobe Illustrator 18.1.1, SVG Export Plug-In . SVG Version: 6.00 Build 0)  -->
<svg version="1.1" id="Capa_1" xmlns="http://www.w3.org/2000/svg" xmlns:xlink="http://www.w3.org/1999/xlink" x="0px" y="0px"
	 viewBox="0 0 25.9 25.9" style="enable-background:new 0 0 25.9 25.9;" xml:space="preserve">
<g>
	<g>
		<path style="fill:#030104;" d="M22.117,19.09c-0.015-0.035-0.032-0.067-0.046-0.103c-0.574,2.29-3.819,3.588-9.121,3.588
			c-5.303,0-8.55-1.3-9.122-3.591c-0.013,0.035-0.031,0.069-0.046,0.105c-0.075,0.225-0.832,1.898-0.832,2.573
			c0,2.367,4.477,4.238,10,4.238s10-1.871,10-4.238C22.95,20.987,22.197,19.312,22.117,19.09z"/>
	</g>
	<g>
		<path style="fill:#030104;" d="M21.282,18.233c0,2.367-3.73,3.429-8.332,3.429S4.617,20.6,4.617,18.233
			c0-1.399,1.306-2.644,3.323-3.425l2.305,4.967l-1.346-5.277c1.192-0.338,2.595-0.551,4.051-0.551c0.459,0,0.908,0.02,1.348,0.055
			l0.98,5.07c0,0,0.205-3.958,0.32-4.904C18.901,14.738,21.282,16.343,21.282,18.233z"/>
	</g>
	<path style="fill:#030104;" d="M17.68,0.03c-1.023-0.121-1.533,0.973-1.621,1.712c-0.088,0.739,0.249,3.342,0.163,4.301
		c-0.314,3.465-0.648,8.177-0.697,8.586c-0.03,0.262-0.316,4.397-0.112,4.423s0.897-4.059,0.929-4.325
		c0.051-0.416,0.837-5.086,1.344-8.52c0.141-0.946,1.077-3.368,1.167-4.132C18.944,1.311,18.703,0.152,17.68,0.03z M17.296,3.252
		c-0.459-0.056-0.771-0.634-0.691-1.293c0.078-0.658,0.517-1.148,0.977-1.094c0.461,0.056,0.77,0.635,0.693,1.293
		C18.193,2.817,17.758,3.307,17.296,3.252z"/>
	<path style="fill:#030104;" d="M8.82,1.864c-0.307-1.3-1.612-2.106-2.914-1.798c-1.303,0.308-2.107,1.613-1.8,2.915
		c0.25,1.054,1.157,1.772,2.184,1.846c0.928,3.46,2.543,9.391,2.634,9.774c0.062,0.256,1.215,4.238,1.415,4.191
		s-0.554-4.121-0.615-4.381C9.633,14.02,8.419,7.997,7.697,4.494C8.582,3.967,9.07,2.92,8.82,1.864z"/>
</g>
<g>
</g>
<g>
</g>
<g>
</g>
<g>
</g>
<g>
</g>
<g>
</g>
<g>
</g>
<g>
</g>
<g>
</g>
<g>
</g>
<g>
</g>
<g>
</g>
<g>
</g>
<g>
</g>
<g>
</g>
</svg>
