<?xml version="1.0" encoding="iso-8859-1"?>
<!-- Generator: Adobe Illustrator 17.1.0, SVG Export Plug-In . SVG Version: 6.00 Build 0)  -->
<!DOCTYPE svg PUBLIC "-//W3C//DTD SVG 1.1//EN" "http://www.w3.org/Graphics/SVG/1.1/DTD/svg11.dtd">
<svg version="1.1" id="Capa_1" xmlns="http://www.w3.org/2000/svg" xmlns:xlink="http://www.w3.org/1999/xlink" x="0px" y="0px"
	 viewBox="0 0 465 465" style="enable-background:new 0 0 465 465;" xml:space="preserve">
<g>
	<path d="M398.45,373.798c-11.414-30.527-37.191-51.849-62.688-51.849c-4.266,0-8.443,0.599-12.465,1.764
		c-21.899-10.86-36.587-26.857-48.76-52.96l-8.86-19.003l51.572-150.784c14.79-4.364,26.825-14.682,33.417-28.819
		c6.069-13.015,6.707-27.613,1.795-41.108c-4.911-13.493-14.783-24.268-27.798-30.336c-1.806-0.843-3.867-0.931-5.735-0.251
		c-1.869,0.681-3.392,2.075-4.231,3.878L190.462,270.754c-12.173,26.103-26.86,42.1-48.76,52.959
		c-4.022-1.166-8.199-1.764-12.465-1.764c-25.496,0-51.273,21.321-62.688,51.849c-6.72,17.973-7.835,36.905-3.141,53.311
		c4.928,17.218,15.607,29.68,30.073,35.088c4.977,1.86,10.236,2.804,15.634,2.804c25.496,0,51.273-21.321,62.688-51.849
		c6.72-17.973,7.835-36.905,3.141-53.311c-3.345-11.687-9.346-21.173-17.375-27.759c19.282-11.772,33.56-28.347,45.135-52.149
		l29.797-10.748l29.796,10.748c11.575,23.802,25.853,40.378,45.135,52.149c-8.03,6.586-14.031,16.073-17.375,27.759
		c-4.694,16.405-3.579,35.338,3.141,53.311c11.412,30.524,37.19,51.846,62.687,51.849c0.002,0,0.004,0,0.006,0
		c5.395,0,10.652-0.943,15.628-2.804c14.467-5.408,25.146-17.87,30.074-35.088C406.285,410.703,405.17,391.771,398.45,373.798z
		 M157.753,407.899C148.486,432.687,128.486,450,109.116,450c-3.598,0-7.09-0.624-10.381-1.854
		c-9.896-3.699-17.319-12.637-20.904-25.164c-3.818-13.342-2.835-28.942,2.77-43.931c9.268-24.788,29.268-42.102,48.637-42.102
		c3.598,0,7.09,0.624,10.381,1.854c9.896,3.699,17.319,12.637,20.904,25.164C164.341,377.31,163.358,392.911,157.753,407.899z
		 M324.818,18.12c6.175,4.492,10.879,10.714,13.55,18.05c3.541,9.729,3.081,20.255-1.295,29.638
		c-5.198,11.149-15.096,19.005-27.154,21.552c-2.585,0.546-4.691,2.411-5.547,4.911l-52.689,154.05l-40.005,14.43L324.818,18.12z
		 M387.169,422.982c-3.585,12.527-11.009,21.465-20.905,25.164c-3.29,1.23-6.78,1.854-10.375,1.854c-0.001,0-0.003,0-0.004,0
		c-19.37-0.003-39.371-17.315-48.638-42.103c-5.604-14.987-6.588-30.588-2.77-43.93c3.585-12.527,11.009-21.465,20.905-25.164
		c3.29-1.23,6.782-1.854,10.38-1.854c19.369,0,39.369,17.313,48.637,42.103C390.004,394.039,390.987,409.64,387.169,422.982z"/>
	<path d="M147.75,100.966l38.544,112.695c1.065,3.115,3.978,5.075,7.096,5.075c0.806,0,1.624-0.131,2.428-0.405
		c3.92-1.341,6.01-5.604,4.67-9.523L160.629,92.271c-0.855-2.5-2.962-4.365-5.547-4.911c-12.059-2.547-21.956-10.402-27.155-21.552
		c-4.375-9.383-4.835-19.908-1.294-29.638c2.671-7.336,7.375-13.558,13.55-18.05l68.969,147.903
		c1.751,3.754,6.212,5.379,9.967,3.627c3.754-1.75,5.378-6.213,3.627-9.967L150.303,4.33c-0.84-1.803-2.362-3.197-4.231-3.878
		c-1.869-0.68-3.934-0.592-5.735,0.251c-13.015,6.068-22.887,16.843-27.798,30.337c-4.912,13.494-4.274,28.093,1.794,41.107
		C120.925,86.286,132.96,96.603,147.75,100.966z"/>
</g>
<g>
</g>
<g>
</g>
<g>
</g>
<g>
</g>
<g>
</g>
<g>
</g>
<g>
</g>
<g>
</g>
<g>
</g>
<g>
</g>
<g>
</g>
<g>
</g>
<g>
</g>
<g>
</g>
<g>
</g>
</svg>
