<?xml version='1.0' encoding='iso-8859-1'?>
<!DOCTYPE svg PUBLIC '-//W3C//DTD SVG 1.1//EN' 'http://www.w3.org/Graphics/SVG/1.1/DTD/svg11.dtd'>
<svg version="1.1" xmlns="http://www.w3.org/2000/svg" viewBox="0 0 297 297" xmlns:xlink="http://www.w3.org/1999/xlink" enable-background="new 0 0 297 297">
  <path d="m228.419,111.09c6.161-5.378 8.697-14.212 5.682-22.319l-9.293-24.992h56.01c5.257,0 9.519-4.262 9.519-9.519s-4.262-9.519-9.519-9.519h-57.055c-1.993,0-3.97,0.098-5.928,0.285l-.156-.42c-1.884-5.068-5.63-9.1-10.546-11.35-4.916-2.252-10.415-2.452-15.482-0.569-5.068,1.884-9.1,5.63-11.35,10.546-2.252,4.916-2.454,10.415-0.569,15.484l1.264,3.4c-0.208,0.203-0.424,0.394-0.63,0.6l-18.922,18.922c-5.872,5.873-13.68,9.108-21.985,9.108-8.305,0-16.113-3.234-21.985-9.108l-17.998-17.996v-56.504c0-3.943-3.196-7.139-7.139-7.139h-78.534c-3.944,0-7.14,3.196-7.14,7.139v282.721c0,3.943 3.196,7.139 7.139,7.139h78.534c3.943,0 7.139-3.196 7.139-7.139v-10.811l1.836,1.836c1.859,1.858 4.295,2.788 6.731,2.788 2.437,0 4.872-0.93 6.731-2.788 3.718-3.718 3.718-9.745 0-13.463l-15.299-15.299v-20.195l1.836,1.836c1.859,1.858 4.295,2.788 6.731,2.788 2.437,0 4.872-0.93 6.731-2.788 3.718-3.718 3.718-9.745 0-13.463l-15.299-15.299v-20.195l1.836,1.836c1.859,1.858 4.295,2.788 6.731,2.788 2.437,0 4.872-0.93 6.731-2.788 3.718-3.718 3.718-9.745 0-13.463l-15.299-15.299v-20.195l1.836,1.836c1.859,1.858 4.295,2.788 6.731,2.788 2.437,0 4.872-0.93 6.731-2.788 3.718-3.717 3.718-9.745 0-13.463l-15.299-15.299v-20.192l4.533,4.533c9.469,9.468 22.058,14.683 35.448,14.683 13.39,0 25.979-5.215 35.448-14.683l13.38-13.38 7.868,21.16c3.015,8.107 10.705,13.139 18.883,13.185l59.09,158.911c1.069,2.875 3.795,4.653 6.692,4.653 0.826,0 1.667-0.144 2.488-0.45 3.695-1.374 5.578-5.484 4.203-9.18l-59.085-158.91zm-143.222-14.606l-17.543-17.542c-3.719-3.717-9.744-3.717-13.463,0-3.717,3.718-3.717,9.745 0,13.463l31.005,31.005v20.195l-17.543-17.543c-3.719-3.717-9.744-3.717-13.463,0-3.717,3.718-3.717,9.745 0,13.463l31.005,31.005v20.195l-17.543-17.543c-3.719-3.717-9.744-3.717-13.463,0-3.717,3.718-3.717,9.745 0,13.463l31.005,31.005v20.195l-17.543-17.543c-3.719-3.717-9.744-3.717-13.463,0-3.717,3.718-3.717,9.745 0,13.463l31.005,31.005v17.951h-64.251v-268.442h64.255v35.085l-17.543-17.542c-3.719-3.717-9.744-3.717-13.463,0-3.717,3.718-3.717,9.745 0,13.463l31.006,31.005v20.194zm108.084-47.307c0.663-1.448 1.851-2.552 3.346-3.108 0.677-0.252 1.38-0.377 2.081-0.377 0.845,0 1.688,0.182 2.479,0.545 0.943,0.432 1.719,1.104 2.314,1.921-3.678,1.282-7.221,2.919-10.594,4.888-0.311-1.292-0.188-2.642 0.374-3.869zm16.255,48.727l-9.886-26.587c3.316-2.308 6.923-4.113 10.728-5.376l10.339,27.806c1.146,3.083-0.429,6.523-3.512,7.67-3.085,1.147-6.521-0.429-7.669-3.513z"/>
</svg>
