<?xml version='1.0' encoding='iso-8859-1'?>
<!DOCTYPE svg PUBLIC '-//W3C//DTD SVG 1.1//EN' 'http://www.w3.org/Graphics/SVG/1.1/DTD/svg11.dtd'>
<svg version="1.1" xmlns="http://www.w3.org/2000/svg" viewBox="0 0 297 297" xmlns:xlink="http://www.w3.org/1999/xlink" enable-background="new 0 0 297 297">
  <g>
    <g>
      <path d="m288.698,270l-59.274-159.405c-1.778,1.582-3.857,2.88-6.219,3.758l-.001,.001c-2.263,0.841-4.584,1.24-6.867,1.24-0.098,0-0.195-0.01-0.292-0.011l59.27,159.394c1.069,2.875 3.795,4.653 6.692,4.653 0.826,0 1.667-0.144 2.488-0.45 3.695-1.374 5.577-5.484 4.203-9.18z"/>
    </g>
    <g>
      <path d="m272.487,65.445c5.257,0 9.519-4.262 9.519-9.519s-4.262-9.519-9.519-9.519h-53.458l7.08,19.038h46.378z"/>
    </g>
    <g>
      <path d="m222.352,93.581l-16.423-44.166c-0.6-1.613-1.79-2.895-3.355-3.611-0.854-0.391-1.764-0.588-2.676-0.588-0.758,0-1.517,0.136-2.248,0.407-3.117,1.159-4.806,4.487-3.994,7.638l-30.742,28.106c-0.096,0.088-0.191,0.179-0.283,0.271-5.872,5.873-13.68,9.108-21.985,9.108-8.305,0-16.113-3.234-21.985-9.108l-18.312-18.154v-56.345c0-3.943-2.879-7.139-6.823-7.139h-78.534c-3.943,0-7.139,3.196-7.139,7.139v282.721c0,3.943 3.196,7.139 7.139,7.139h78.534c3.943,0 6.823-3.196 6.823-7.139v-11.128c1.859,1.858 6.448,4.941 8.884,4.941 2.437,0 4.872-0.93 6.731-2.788 3.718-3.718 3.718-9.745 0-13.463l-15.616-15.616v-20.195c1.859,1.858 6.448,4.941 8.884,4.941 2.437,0 4.872-0.93 6.731-2.788 3.718-3.718 3.718-9.745 0-13.463l-15.616-15.616v-20.195c1.859,1.858 6.448,4.941 8.884,4.941 2.437,0 4.872-0.93 6.731-2.788 3.718-3.718 3.718-9.745 0-13.463l-15.616-15.616v-20.195c1.859,1.858 6.448,4.941 8.884,4.941 2.437,0 4.872-0.93 6.731-2.788 3.718-3.717 3.718-9.745 0-13.463l-15.616-15.616v-20.033l4.85,4.691c9.469,9.468 22.058,14.683 35.448,14.683 13.321,0 25.851-5.161 35.302-14.538l24.791-22.833 9.54,25.657c1.237,3.329 4.955,5.026 8.28,3.793 3.332-1.238 5.034-4.954 3.796-8.282zm-122.004,185.151l-44.967-44.967c-3.717-3.718-3.717-9.745 0-13.463 3.719-3.717 9.744-3.717 13.463,0l31.505,31.505v26.925zm-.001-47.12l-44.967-44.967c-3.717-3.718-3.717-9.745 0-13.463 3.719-3.717 9.744-3.717 13.463,0l31.505,31.505v26.925zm-.001-47.12l-44.967-44.967c-3.717-3.717-3.717-9.745 0-13.463 3.719-3.717 9.744-3.717 13.463,0l31.505,31.505v26.925zm-.001-47.12l-44.967-44.968c-3.717-3.718-3.717-9.745 0-13.463 3.719-3.717 9.744-3.717 13.463,0l31.505,31.505v26.926zm-44.968-92.088c-3.717-3.717-3.717-9.745 0-13.463 3.719-3.717 9.744-3.717 13.463,0l31.505,31.663v26.926l-44.968-45.126z"/>
    </g>
  </g>
</svg>
