<?xml version='1.0' encoding='iso-8859-1'?>
<!DOCTYPE svg PUBLIC '-//W3C//DTD SVG 1.1//EN' 'http://www.w3.org/Graphics/SVG/1.1/DTD/svg11.dtd'>
<svg version="1.1" xmlns="http://www.w3.org/2000/svg" viewBox="0 0 462.911 462.911" xmlns:xlink="http://www.w3.org/1999/xlink" enable-background="new 0 0 462.911 462.911">
  <g>
    <path d="m71.205,115.397c-13.915,0-25.236,11.321-25.236,25.236v52.238c0,13.916 11.321,25.236 25.236,25.236 13.916,0 25.236-11.321 25.236-25.236v-52.238c0-13.915-11.321-25.236-25.236-25.236zm0,20c2.887,0 5.236,2.349 5.236,5.236v15.732h-10.472v-15.732c0-2.887 2.348-5.236 5.236-5.236zm0,62.71c-2.887,0-5.236-2.349-5.236-5.236v-16.506h10.472v16.506c1.42109e-14,2.887-2.349,5.236-5.236,5.236z"/>
    <path d="m452.911,121.202h-25.127c-5.487-25.535-28.227-44.737-55.377-44.737h-30.942v-34.983c0-5.523-4.478-10-10-10h-5.236v-9.109c0-5.523-4.478-10-10-10s-10,4.477-10,10v9.109h-5.236c-5.522,0-10,4.477-10,10v34.982h-7.207v-34.982c0-5.523-4.478-10-10-10h-5.236v-9.109c0-5.523-4.478-10-10-10s-10,4.477-10,10v9.109h-5.235c-5.522,0-10,4.477-10,10v34.982h-152.11v-15.093c1.42109e-14-5.523-4.477-10-10-10s-10,4.477-10,10v15.094h-4.556c-31.236-0.001-56.649,25.411-56.649,56.647v113.895c0,5.523 4.477,10 10,10h23.334v19.758c0,5.523 4.477,10 10,10h17.871v27.214h-29.157c-17.672,0.001-32.048,14.377-32.048,32.049v94.511c0,5.523 4.477,10 10,10h409.055c5.522,0 10-4.477 10-10v-203.568h23.856c5.522,0 10-4.477 10-10v-95.769c0-5.523-4.477-10-10-10zm-141.919-69.72h10.473v24.982h-10.473v-24.982zm-57.679,0h10.472v24.982h-10.472v-24.982zm-199.979,205.525h35.741v9.758h-35.741v-9.758zm27.871,29.759h17.871c5.523,0 10-4.477 10-10v-19.758h23.334c5.523,0 10-4.477 10-10v-20.609c0-7.375 6-13.375 13.375-13.375h79.352c7.375,0 13.375,6 13.375,13.375v87.582h-167.307v-27.215zm-49.157,47.214h226.464c5.522,0 10-4.477 10-10v-97.582c0-18.403-14.972-33.375-33.375-33.375h-79.352c-18.403,0-33.375,14.972-33.375,33.375v10.609h-102.41v-103.895c0-20.208 16.44-36.648 36.648-36.648h315.759c20.207,0 36.647,16.44 36.647,36.648v265.24h-389.054v-52.325c0-6.642 5.405-12.047 12.048-12.047zm-12.048,96.559v-12.186h389.055v12.186h-389.055zm422.911-213.568h-13.856v-75.769h13.856v75.769z"/>
    <path d="m214.023,115.397c-17.699,0-32.099,14.399-32.099,32.098s14.399,32.099 32.099,32.099c17.699,0 32.098-14.399 32.098-32.099s-14.399-32.098-32.098-32.098zm0,44.197c-6.671,0-12.099-5.427-12.099-12.099 0-6.671 5.427-12.098 12.099-12.098 6.671,0 12.098,5.427 12.098,12.098 0,6.672-5.427,12.099-12.098,12.099z"/>
    <path d="m322.025,147.496c0-17.699-14.399-32.098-32.099-32.098s-32.099,14.399-32.099,32.098 14.399,32.099 32.099,32.099 32.099-14.4 32.099-32.099zm-44.197,0c0-6.671 5.428-12.098 12.099-12.098s12.099,5.427 12.099,12.098c0,6.671-5.428,12.099-12.099,12.099s-12.099-5.428-12.099-12.099z"/>
    <path d="m284.218,307.672v16.308c0,5.523 4.478,10 10,10h86.791c5.522,0 10-4.477 10-10v-16.308c0-15.654-12.735-28.389-28.389-28.389h-50.014c-15.653,0-28.388,12.735-28.388,28.389zm86.791,0v6.308h-66.791v-6.308c0-4.625 3.763-8.389 8.389-8.389h50.014c4.625,0 8.388,3.763 8.388,8.389z"/>
  </g>
</svg>
