<?xml version="1.0" encoding="iso-8859-1"?>
<!-- Generator: Adobe Illustrator 16.0.0, SVG Export Plug-In . SVG Version: 6.00 Build 0)  -->
<!DOCTYPE svg PUBLIC "-//W3C//DTD SVG 1.1//EN" "http://www.w3.org/Graphics/SVG/1.1/DTD/svg11.dtd">
<svg version="1.1" id="Capa_1" xmlns="http://www.w3.org/2000/svg" xmlns:xlink="http://www.w3.org/1999/xlink" x="0px" y="0px"
	 width="443.929px" height="443.929px" viewBox="0 0 443.929 443.929" style="enable-background:new 0 0 443.929 443.929;"
	 xml:space="preserve">
<g>
	<g>
		<path d="M430.837,118.81c-7.229,0-13.097,0-13.097,0v64.271h13.097c7.233,0,13.092-6.398,13.092-14.278v-35.71
			C443.929,125.199,438.07,118.81,430.837,118.81z"/>
		<path d="M396.722,379.063c7.887,0,14.274-6.384,14.274-14.29V261.63V98.188c0-7.889-6.388-14.279-14.274-14.279h-13.938V69.63
			h7.435v-4.765h-24.394v4.765h7.438v14.278h-98.73h-7.935H51.019c-7.889,0-14.278,6.39-14.278,14.279v26.18v40.471v30.152
			c0,7.88,6.39,14.278,14.278,14.278h33.484v37.69h3.871v14.671H14.283C6.398,261.63,0,268.026,0,275.913v88.86
			c0,7.898,6.39,14.274,14.283,14.274h382.439V379.063z M385.612,183.081v25.782h-67.841v-25.782H385.612z M373.707,113.057
			c4.597,0,8.339,3.737,8.339,8.338c0,4.598-3.742,8.329-8.339,8.329c-4.601,0-8.328-3.731-8.328-8.329
			C365.379,116.786,369.106,113.057,373.707,113.057z M373.707,148.172c4.597,0,8.339,3.731,8.339,8.33
			c0,4.601-3.742,8.337-8.339,8.337c-4.601,0-8.328-3.737-8.328-8.337C365.379,151.903,369.106,148.172,373.707,148.172z
			 M347.53,113.057c4.601,0,8.336,3.737,8.336,8.338c0,4.598-3.735,8.329-8.336,8.329c-4.597,0-8.331-3.731-8.331-8.329
			C339.199,116.786,342.934,113.057,347.53,113.057z M347.53,148.172c4.601,0,8.336,3.731,8.336,8.33
			c0,4.601-3.735,8.337-8.336,8.337c-4.597,0-8.331-3.737-8.331-8.337C339.199,151.903,342.934,148.172,347.53,148.172z
			 M321.342,113.057c4.601,0,8.335,3.737,8.335,8.338c0,4.598-3.734,8.329-8.335,8.329c-4.597,0-8.331-3.731-8.331-8.329
			C313.011,116.786,316.745,113.057,321.342,113.057z M321.342,148.172c4.601,0,8.335,3.731,8.335,8.33
			c0,4.601-3.734,8.337-8.335,8.337c-4.597,0-8.331-3.737-8.331-8.337C313.011,151.903,316.745,148.172,321.342,148.172z
			 M93.131,246.959h3.867v-13.693h13.693v-3.577H96.998v-20.428h47.41c7.889,0,14.279-6.396,14.279-14.279v-30.151h74.584
			c18.402,0,33.326,14.923,33.326,33.321v49.203c0,7.891-6.4,14.274-14.283,14.274H93.131V246.959z"/>
	</g>
</g>
<g>
</g>
<g>
</g>
<g>
</g>
<g>
</g>
<g>
</g>
<g>
</g>
<g>
</g>
<g>
</g>
<g>
</g>
<g>
</g>
<g>
</g>
<g>
</g>
<g>
</g>
<g>
</g>
<g>
</g>
</svg>
