<?xml version="1.0" encoding="iso-8859-1"?>
<!-- Generator: Adobe Illustrator 19.0.0, SVG Export Plug-In . SVG Version: 6.00 Build 0)  -->
<svg version="1.1" id="Capa_1" xmlns="http://www.w3.org/2000/svg" xmlns:xlink="http://www.w3.org/1999/xlink" x="0px" y="0px"
	 viewBox="0 0 463 463" style="enable-background:new 0 0 463 463;" xml:space="preserve">
<g>
	<path d="M399.5,256H367v-33h32.5c12.958,0,23.5-10.542,23.5-23.5v-104c0-21.78-17.72-39.5-39.5-39.5H367V39.5
		c0-4.142-3.358-7.5-7.5-7.5s-7.5,3.358-7.5,7.5V56H87V39.5c0-4.142-3.358-7.5-7.5-7.5S72,35.358,72,39.5V56H47.5
		C34.542,56,24,66.542,24,79.5V88h-8.5C6.953,88,0,94.953,0,103.5v64c0,8.547,6.953,15.5,15.5,15.5H24v200.5
		c0,10.336,6.71,19.128,16,22.266v9.734c0,8.547,6.953,15.5,15.5,15.5h336c8.547,0,15.5-6.953,15.5-15.5v-8.958
		c31.49-3.724,56-30.567,56-63.042v-24C463,284.486,434.514,256,399.5,256z M327,271h65v8.5c0,0.276-0.224,0.5-0.5,0.5h-64
		c-0.276,0-0.5-0.224-0.5-0.5V271z M352,256H223.5c-13.509,0-24.5-10.991-24.5-24.5v-32c0-13.509,10.991-24.5,24.5-24.5h83.365
		l17.505,35.009C328.376,218.022,336.43,223,345.389,223H352V256z M39,79.5c0-4.687,3.813-8.5,8.5-8.5h336
		c13.509,0,24.5,10.991,24.5,24.5V128H39V79.5z M15.5,168c-0.276,0-0.5-0.224-0.5-0.5v-64c0-0.276,0.224-0.5,0.5-0.5H24v65H15.5z
		 M391.5,416h-336c-0.276,0-0.5-0.224-0.5-0.5V407h337v8.5C392,415.776,391.776,416,391.5,416z M448,343.5
		c0,26.743-21.757,48.5-48.5,48.5h-352c-4.687,0-8.5-3.813-8.5-8.5V143h369v56.5c0,4.687-3.813,8.5-8.5,8.5h-54.111
		c-3.24,0-6.154-1.8-7.603-4.699l-19.578-39.155c-1.27-2.541-3.867-4.146-6.708-4.146h-88c-21.78,0-39.5,17.72-39.5,39.5v32
		c0,21.78,17.72,39.5,39.5,39.5H312v8.5c0,8.547,6.953,15.5,15.5,15.5h64c8.547,0,15.5-6.953,15.5-15.5v-7.918
		c23.194,3.616,41,23.725,41,47.918V343.5z"/>
	<path d="M111.5,168C85.309,168,64,189.309,64,215.5S85.309,263,111.5,263s47.5-21.309,47.5-47.5S137.691,168,111.5,168z M144,215.5
		c0,6.259-1.783,12.108-4.862,17.073L94.477,187.83c4.954-3.059,10.785-4.83,17.023-4.83C129.42,183,144,197.58,144,215.5z
		 M79,215.5c0-6.259,1.783-12.108,4.862-17.073l44.661,44.743c-4.954,3.059-10.785,4.83-17.023,4.83C93.58,248,79,233.42,79,215.5z"
		/>
	<path d="M139.5,280h-56c-10.493,0-19.053,8.337-19.461,18.732C64.013,298.984,64,299.241,64,299.5v24
		c0,10.752,8.748,19.5,19.5,19.5h56c10.752,0,19.5-8.748,19.5-19.5v-24c0-0.259-0.013-0.516-0.039-0.768
		C158.553,288.337,149.993,280,139.5,280z M83.5,295h56c2.481,0,4.5,2.019,4.5,4.5s-2.019,4.5-4.5,4.5h-56
		c-2.481,0-4.5-2.019-4.5-4.5S81.019,295,83.5,295z M139.5,328h-56c-2.481,0-4.5-2.019-4.5-4.5v-5.045
		c1.447,0.344,2.949,0.545,4.5,0.545h56c1.551,0,3.053-0.201,4.5-0.545v5.045C144,325.981,141.981,328,139.5,328z"/>
</g>
<g>
</g>
<g>
</g>
<g>
</g>
<g>
</g>
<g>
</g>
<g>
</g>
<g>
</g>
<g>
</g>
<g>
</g>
<g>
</g>
<g>
</g>
<g>
</g>
<g>
</g>
<g>
</g>
<g>
</g>
</svg>
