<?xml version="1.0" encoding="iso-8859-1"?>
<!-- Generator: Adobe Illustrator 18.1.1, SVG Export Plug-In . SVG Version: 6.00 Build 0)  -->
<svg version="1.1" id="Capa_1" xmlns="http://www.w3.org/2000/svg" xmlns:xlink="http://www.w3.org/1999/xlink" x="0px" y="0px"
	 viewBox="0 0 59.129 59.129" style="enable-background:new 0 0 59.129 59.129;" xml:space="preserve">
<g>
	<path style="fill:#030104;" d="M42,8.429c0.003-0.018,0.005-0.035,0.005-0.055v-6.44C42.005,0.868,41.138,0,40.072,0H19.058
		c-1.065,0-1.933,0.867-1.933,1.934v6.44c0,0.019,0.002,0.037,0.005,0.055c0.004,0.027-0.453,0.047-0.972,0.236
		c-1.14,0.416-1.955,1.494-1.955,2.76v36.363c0,1.262,0.811,2.338,1.946,2.756c0.519,0.191,0.977,0.635,0.977,1.188
		c-0.001,1.814-0.001,5.465-0.001,5.465c0,1.064,0.867,1.932,1.933,1.932h21.014c1.065,0,1.933-0.867,1.933-1.932v-5.441
		c0-0.553,0.46-1.002,0.977-1.199c1.135-0.43,1.945-1.506,1.945-2.768V11.425c0-1.266-0.815-2.344-1.955-2.76
		C42.452,8.476,41.995,8.456,42,8.429z M37.568,48.739h-1.499c-0.553,0-0.73-0.357-0.416-0.812c0.952-1.375,2.018-3.186,2.616-5.082
		c0.166-0.525,0.592-0.885,1-0.789c0.409,0.096,0.752,0.617,0.718,1.168c-0.117,1.85-0.612,3.492-1.033,4.592
		C38.757,48.333,38.12,48.739,37.568,48.739z M16.919,16.794l5.746-5.621c0.394-0.385,1.162-0.699,1.715-0.699h0.565
		c0.553,0,0.738,0.363,0.403,0.803c-2.839,3.715-6.181,6.766-8.37,8.588c-0.424,0.354-0.773,0.186-0.773-0.367v-1.004
		C16.204,17.94,16.524,17.179,16.919,16.794z M42.927,19.327v0.895c0,0.553-0.426,0.857-0.929,0.629
		c-2.353-1.066-4.424-2.961-5.632-4.217c-0.383-0.396-0.453-1.121-0.188-1.605c0.101-0.182,0.201-0.367,0.3-0.553
		c0.26-0.486,0.75-0.543,1.131-0.143c0.997,1.047,2.459,2.332,4.444,3.504C42.529,18.118,42.927,18.774,42.927,19.327z M16.204,30.3
		v-0.801c0-0.553,0.391-1.217,0.863-1.502c3.249-1.955,11.317-7.486,16.083-16.631c0.256-0.49,0.896-0.893,1.449-0.893h0.607
		c0.553,0,0.819,0.41,0.584,0.91c-5.639,11.985-14.564,17.491-18.679,19.495C16.614,31.12,16.204,30.853,16.204,30.3z
		 M42.927,29.669v0.928c0,0.553-0.441,0.922-0.98,0.801c-5.75-1.291-9.927-4.439-11.955-6.264c-0.411-0.369-0.417-1.006-0.044-1.412
		c0.295-0.322,0.589-0.652,0.883-0.992c0.361-0.418,0.954-0.438,1.355-0.059c1.772,1.678,5.056,4.232,9.781,5.717
		C42.493,28.554,42.927,29.116,42.927,29.669z M28.557,26.55c2.216,2.027,6.853,5.553,13.387,6.893
		c0.541,0.111,0.983,0.629,0.983,1.182v0.691c0,0.553-0.443,0.938-0.987,0.844c-8.277-1.436-13.501-5.42-15.76-7.527
		c-0.403-0.377-0.366-0.981,0.054-1.338c0.286-0.244,0.574-0.496,0.863-0.758C27.508,26.167,28.149,26.177,28.557,26.55z
		 M16.999,22.429c2.229-1.746,7.074-5.844,10.811-11.131c0.319-0.451,1.014-0.824,1.566-0.824h0.983
		c0.553,0,0.794,0.396,0.522,0.879c-4.098,7.266-10.453,12.08-13.835,14.281c-0.463,0.303-0.844,0.088-0.844-0.465v-1.133
		C16.204,23.483,16.563,22.769,16.999,22.429z M17.128,33.095c0.507-0.223,1.118-0.51,1.812-0.869
		c0.49-0.254,1.121-0.094,1.462,0.34c0.134,0.17,0.282,0.35,0.447,0.537c0.364,0.414,0.344,1.018-0.111,1.33
		c-1.079,0.746-2.432,1.438-3.617,1.977c-0.503,0.229-0.917-0.047-0.917-0.6v-1.33C16.204,33.927,16.622,33.317,17.128,33.095z
		 M17.13,38.589c1.427-0.607,3.533-1.607,5.134-2.799c0.443-0.33,1.124-0.354,1.571-0.029c0.089,0.064,0.179,0.129,0.271,0.191
		c0.452,0.318,0.528,0.891,0.133,1.275c-2.504,2.438-5.25,3.717-7.082,4.357c-0.521,0.182-0.952-0.145-0.952-0.697v-0.918
		C16.204,39.417,16.621,38.806,17.13,38.589z M17.168,43.696c2.097-0.646,5.663-2.149,8.838-5.416
		c0.385-0.396,1.071-0.516,1.564-0.268c0.202,0.104,0.41,0.205,0.622,0.307c0.498,0.24,0.666,0.803,0.33,1.24
		c-3.015,3.945-8.486,6.486-11.382,7.619c-0.515,0.201-0.937-0.096-0.937-0.648v-1.566C16.204,44.411,16.641,43.86,17.168,43.696z
		 M31.899,39.89c0.09,0.033,0.181,0.066,0.272,0.1c0.52,0.186,0.751,0.734,0.472,1.211c-2.057,3.51-5.65,5.977-7.424,7.043
		c-0.474,0.283-1.316,0.496-1.869,0.496h-3.702c-0.553,0-0.585-0.17-0.079-0.393c3.336-1.469,8.081-4.092,10.846-7.977
		C30.734,39.919,31.381,39.7,31.899,39.89z M28.923,48.146c1.942-1.488,4.181-3.617,5.655-6.315
		c0.265-0.484,0.799-0.789,1.232-0.664s0.695,0.66,0.524,1.184c-0.72,2.207-2.22,4.363-3.19,5.611
		c-0.339,0.436-1.076,0.777-1.629,0.777h-2.397C28.565,48.739,28.484,48.482,28.923,48.146z M22.39,30.189
		c0.217-0.145,0.437-0.293,0.66-0.447c0.453-0.315,1.118-0.252,1.515,0.133c2.348,2.281,8.035,6.797,17.372,8.316
		c0.546,0.088,0.99,0.594,0.99,1.146v0.434c0,0.553-0.44,0.918-0.982,0.81c-12.814-2.559-17.914-6.799-19.795-9.051
		C21.796,31.107,21.93,30.493,22.39,30.189z M33.322,19.571c0.245-0.344,0.489-0.693,0.73-1.051
		c0.309-0.457,0.851-0.504,1.242-0.113c1.5,1.504,3.911,3.564,6.682,4.6c0.518,0.193,0.95,0.756,0.95,1.309v1.281
		c0,0.553-0.43,0.875-0.952,0.693c-4.141-1.432-7.03-3.758-8.54-5.203C33.036,20.704,33.001,20.019,33.322,19.571z M42.927,15.03
		c0,0.553-0.384,0.771-0.842,0.463c-1.666-1.127-2.833-2.293-3.555-3.131c-0.36-0.418-0.514-1.025-0.383-1.332
		c0.131-0.307,0.683-0.557,1.235-0.557h2.544c0.552,0,1,0.426,1,0.951L42.927,15.03L42.927,15.03z M20.059,1.935h19.014
		c0.553,0,1,0.447,1,1l0.002,4.44c0,0.553-0.447,1-1,1H20.059c-0.553,0-1-0.447-1-1v-4.44C19.059,2.382,19.507,1.935,20.059,1.935z
		 M19.52,10.474c0.553,0,0.68,0.314,0.285,0.699l-2.886,2.822c-0.395,0.387-0.715,0.252-0.715-0.301v-2.269
		c0-0.525,0.448-0.951,1-0.951C17.204,10.474,19.52,10.474,19.52,10.474z M19.059,56.196v-4.441c0-0.553,0.447-1,1-1h19.014
		c0.553,0,1,0.447,1,1l0.002,4.441c0,0.553-0.447,1-1,1H20.059C19.507,57.196,19.059,56.749,19.059,56.196z M41.337,48.739
		c-0.326,0-0.424-0.416-0.248-0.939c0.377-1.121,0.742-2.561,0.871-4.166c0.044-0.551,0.254-0.959,0.508-0.912
		c0.255,0.045,0.46,0.529,0.46,1.082v3.984c0,0.525-0.448,0.951-1,0.951C41.928,48.739,41.663,48.739,41.337,48.739z"/>
</g>
<g>
</g>
<g>
</g>
<g>
</g>
<g>
</g>
<g>
</g>
<g>
</g>
<g>
</g>
<g>
</g>
<g>
</g>
<g>
</g>
<g>
</g>
<g>
</g>
<g>
</g>
<g>
</g>
<g>
</g>
</svg>
