<?xml version='1.0' encoding='iso-8859-1'?>
<!DOCTYPE svg PUBLIC '-//W3C//DTD SVG 1.1//EN' 'http://www.w3.org/Graphics/SVG/1.1/DTD/svg11.dtd'>
<svg version="1.1" xmlns="http://www.w3.org/2000/svg" viewBox="0 0 315 315" xmlns:xlink="http://www.w3.org/1999/xlink" enable-background="new 0 0 315 315">
  <g>
    <path d="m251.528,41.194h-16.182v-9.617c0-8.411-6.843-15.254-15.253-15.254h-21.458c-8.41,0-15.252,6.843-15.252,15.254v9.617h-104.832v-9.617c0-8.411-6.842-15.254-15.252-15.254h-21.458c-8.41,0-15.252,6.843-15.252,15.254v9.617h-10.123c-9.079,0-16.466,7.385-16.466,16.461v28.016c0,17.498 5.228,33.45 14.723,44.919 6.626,8.005 14.968,13.514 24.218,16.148v3.079c0,16.465 13.395,29.859 29.859,29.859h4.661v18.762c0,3.866 3.134,7 7,7 3.866,0 7-3.134 7-7v-18.762h4.657c16.467,0 29.863-13.395 29.863-29.859v-1.303h80.571c10.363,0 18.794,8.43 18.794,18.791v69.744h-193.136c-15.555,0.001-28.21,10.354-28.21,23.081v31.547c0,3.866 3.134,7 7,7h301c3.866,0 7-3.134 7-7v-187.01c0-34.999-28.474-63.473-63.472-63.473zm-54.144-9.617c0-0.691 0.561-1.254 1.252-1.254h21.458c0.69,0 1.253,0.563 1.253,1.254v9.617h-23.963v-9.617zm-156.795,0c0-0.691 0.562-1.254 1.252-1.254h21.458c0.69,0 1.252,0.563 1.252,1.254v9.617h-23.962v-9.617zm67.392,118.24c0,8.745-7.116,15.859-15.863,15.859h-23.318c-8.745,0-15.859-7.114-15.859-15.859v-1.303h55.041v1.303zm94.571-15.302h-150.827c-21.86,0-37.726-20.542-37.726-48.844v-28.016c0-1.358 1.106-2.461 2.466-2.461h235.063c27.278,0 49.472,22.193 49.472,49.473v174.668l-65.653-39.256v-72.773c-0.001-18.081-14.712-32.791-32.795-32.791zm-188.553,125.615c0-4.295 5.836-9.08 14.21-9.08h198.203l56.239,33.627h-268.652v-24.547z"/>
    <path d="m247.581,135.039c8.244,0 15.996-3.211 21.83-9.043 12.033-12.038 12.033-31.623-0.001-43.658-5.832-5.831-13.585-9.043-21.83-9.043-8.245,0-15.998,3.212-21.829,9.044-12.032,12.035-12.032,31.62 0.002,43.659 5.832,5.83 13.584,9.041 21.828,9.041zm11.93-18.941c-3.188,3.187-7.424,4.941-11.93,4.941-2.048,0-4.034-0.38-5.898-1.075l21.688-21.687c2.225,5.996 0.949,13.009-3.86,17.821zm-23.86-23.861c3.187-3.188 7.423-4.942 11.929-4.942 2.048,0 4.034,0.38 5.897,1.075l-21.685,21.686c-2.225-5.996-0.949-13.008 3.859-17.819z"/>
  </g>
</svg>
