<?xml version='1.0' encoding='iso-8859-1'?>
<!DOCTYPE svg PUBLIC '-//W3C//DTD SVG 1.1//EN' 'http://www.w3.org/Graphics/SVG/1.1/DTD/svg11.dtd'>
<svg version="1.1" xmlns="http://www.w3.org/2000/svg" viewBox="0 0 424.479 424.479" xmlns:xlink="http://www.w3.org/1999/xlink" enable-background="new 0 0 424.479 424.479">
  <g>
    <path d="m204.102,110.865c-13.988,0-25.368,11.38-25.368,25.368 0,13.988 11.38,25.368 25.368,25.368 13.987,0 25.367-11.38 25.367-25.368 0-13.988-11.38-25.368-25.367-25.368zm0,35.736c-5.717,0-10.368-4.651-10.368-10.368s4.651-10.368 10.368-10.368 10.367,4.651 10.367,10.368-4.651,10.368-10.367,10.368z"/>
    <path d="m416.979,114.238h-25.527c-0.613-23.678-20.05-42.754-43.873-42.754h-22.87v-16.23c0-4.142-3.357-7.5-7.5-7.5s-7.5,3.358-7.5,7.5v16.229h-227.937v-16.229c1.42109e-14-4.142-3.357-7.5-7.5-7.5s-7.5,3.358-7.5,7.5v16.229h-22.87c-24.208,0.001-43.902,19.695-43.902,43.903v94.533c0,14.424 11.735,26.159 26.159,26.159h12.199v3.469h-10.968c-4.143,0-7.5,3.358-7.5,7.5s3.357,7.5 7.5,7.5h10.969v9.152h-12.2c-14.424-0.001-26.159,11.734-26.159,26.158v79.369c0,4.142 3.357,7.5 7.5,7.5h376.481c4.143,0 7.5-3.358 7.5-7.5v-134.994h25.498c4.143,0 7.5-3.358 7.5-7.5v-104.994c0-4.143-3.357-7.5-7.5-7.5zm-363.621,140.308h10.969c4.143,0 7.5-3.358 7.5-7.5s-3.357-7.5-7.5-7.5h-10.969v-3.469h10.779c14.424,0 26.158-11.735 26.158-26.159v-3.628c0-7.077 5.757-12.833 12.834-12.833h125.553c7.077,0 12.834,5.757 12.834,12.833v44.574c0,7.076-5.757,12.833-12.834,12.833h-175.324v-9.151zm323.123,107.179h-361.481v-71.869c0-6.153 5.006-11.159 11.159-11.159h202.523c15.348,0 27.834-12.486 27.834-27.833v-44.574c0-15.348-12.486-27.833-27.834-27.833h-125.552c-15.348,0-27.834,12.486-27.834,27.833v3.628c0,6.153-5.006,11.159-11.158,11.159h-37.979c-6.153,0-11.159-5.006-11.159-11.159v-94.533c0-15.937 12.966-28.902 28.902-28.902h303.677c15.937,0 28.902,12.965 28.902,28.902v246.34zm32.998-142.493h-17.998v-89.995h17.998v89.995z"/>
    <path d="m347.849,171.134h-48.753c-4.143,0-7.5,3.358-7.5,7.5s3.357,7.5 7.5,7.5h48.753c4.143,0 7.5-3.358 7.5-7.5s-3.358-7.5-7.5-7.5z"/>
    <path d="m347.849,144.236h-48.753c-4.143,0-7.5,3.358-7.5,7.5s3.357,7.5 7.5,7.5h48.753c4.143,0 7.5-3.358 7.5-7.5s-3.358-7.5-7.5-7.5z"/>
    <path d="m347.849,117.338h-48.753c-4.143,0-7.5,3.358-7.5,7.5s3.357,7.5 7.5,7.5h48.753c4.143,0 7.5-3.358 7.5-7.5s-3.358-7.5-7.5-7.5z"/>
    <path d="m156.911,111.843c-0.006-0.006-0.013-0.011-0.019-0.017-6.512-6.504-15.167-10.086-24.372-10.086-9.214,0-17.876,3.588-24.39,10.103-6.516,6.515-10.104,15.177-10.104,24.391 0,9.213 3.588,17.875 10.103,24.39 6.515,6.515 15.177,10.103 24.391,10.103 9.213,0 17.875-3.588 24.39-10.103 0.001,0 0.001,0 0.001,0 13.441-13.442 13.448-35.309 0.019-48.759-0.007-0.008-0.012-0.015-0.019-0.022zm-38.174,10.606c3.682-3.682 8.576-5.709 13.783-5.709 2.589,0 5.101,0.503 7.426,1.461l-25.458,25.458c-0.957-2.324-1.46-4.836-1.46-7.426-0.001-5.207 2.027-10.102 5.709-13.784zm27.568,27.568c-3.683,3.682-8.578,5.709-13.784,5.709-2.59,0-5.101-0.503-7.426-1.46l25.449-25.449c2.892,7.057 1.482,15.478-4.239,21.2z"/>
  </g>
</svg>
