<?xml version="1.0" encoding="iso-8859-1"?>
<!-- Generator: Adobe Illustrator 18.0.0, SVG Export Plug-In . SVG Version: 6.00 Build 0)  -->
<!DOCTYPE svg PUBLIC "-//W3C//DTD SVG 1.1//EN" "http://www.w3.org/Graphics/SVG/1.1/DTD/svg11.dtd">
<svg version="1.1" id="Capa_1" xmlns="http://www.w3.org/2000/svg" xmlns:xlink="http://www.w3.org/1999/xlink" x="0px" y="0px"
	 viewBox="0 0 60 60" style="enable-background:new 0 0 60 60;" xml:space="preserve">
<g>
	<path d="M47,29h0.899c-0.13-0.637-0.384-1.229-0.732-1.753l-0.632,0.632c-0.195,0.195-0.451,0.293-0.707,0.293
		s-0.512-0.098-0.707-0.293c-0.391-0.391-0.391-1.023,0-1.414l0.632-0.632c-0.524-0.348-1.116-0.602-1.753-0.732V26
		c0,0.553-0.447,1-1,1s-1-0.447-1-1v-0.899c-0.637,0.13-1.229,0.384-1.753,0.732l0.632,0.632c0.391,0.391,0.391,1.023,0,1.414
		c-0.195,0.195-0.451,0.293-0.707,0.293s-0.512-0.098-0.707-0.293l-0.632-0.632c-0.348,0.524-0.602,1.116-0.732,1.753H39
		c0.553,0,1,0.447,1,1s-0.447,1-1,1h-0.899c0.13,0.637,0.384,1.229,0.732,1.753l0.632-0.632c0.391-0.391,1.023-0.391,1.414,0
		s0.391,1.023,0,1.414l-0.632,0.632c0.524,0.348,1.116,0.602,1.753,0.732V34c0-0.553,0.447-1,1-1s1,0.447,1,1v0.899
		c0.637-0.13,1.229-0.384,1.753-0.732l-0.632-0.632c-0.391-0.391-0.391-1.023,0-1.414s1.023-0.391,1.414,0l0.632,0.632
		c0.348-0.524,0.602-1.116,0.732-1.753H47c-0.553,0-1-0.447-1-1S46.447,29,47,29z"/>
	<rect x="8" y="44" width="12" height="4"/>
</g>
<path d="M56,24c-0.553,0-1-0.447-1-1s0.447-1,1-1h4v-1h-4c-0.553,0-1-0.447-1-1s0.447-1,1-1h4v-1h-4c-0.553,0-1-0.447-1-1
	s0.447-1,1-1h4v-2c0-0.553-0.447-1-1-1h-5V4c0-0.553-0.447-1-1-1h-6V1c0-0.553-0.447-1-1-1h-5c-0.553,0-1,0.447-1,1v2h-2V1
	c0-0.553-0.447-1-1-1h-5c-0.553,0-1,0.447-1,1v2H4C3.447,3,3,3.447,3,4v14h7c0.553,0,1,0.447,1,1s-0.447,1-1,1H3v5
	c0,0.553,0.447,1,1,1h7v8h-0.5C9.121,34,8,35.121,8,36.5S9.121,39,10.5,39H13v2c0,0.553,0.447,1,1,1s1-0.447,1-1v-2h2.5
	c1.379,0,2.5-1.121,2.5-2.5S18.879,34,17.5,34H17v-8h6c0.553,0,1-0.447,1-1v-4h8v23H22v5c0,0.553-0.447,1-1,1H7
	c-0.553,0-1-0.447-1-1v-5H5.673C2.545,44,0,46.545,0,49.673v4.654C0,57.455,2.545,60,5.673,60H53c0.553,0,1-0.447,1-1V27h5
	c0.553,0,1-0.447,1-1v-2H56z M15,34h-2v-8h2V34z M42,2h3v1h-3V2z M33,2h3v1h-3V2z M39,45h-2c-0.553,0-1-0.447-1-1s0.447-1,1-1h2
	c0.553,0,1,0.447,1,1S39.553,45,39,45z M39,42h-2c-0.553,0-1-0.447-1-1s0.447-1,1-1h2c0.553,0,1,0.447,1,1S39.553,42,39,42z M44,45
	h-2c-0.553,0-1-0.447-1-1s0.447-1,1-1h2c0.553,0,1,0.447,1,1S44.553,45,44,45z M44,42h-2c-0.553,0-1-0.447-1-1s0.447-1,1-1h2
	c0.553,0,1,0.447,1,1S44.553,42,44,42z M49,45h-2c-0.553,0-1-0.447-1-1s0.447-1,1-1h2c0.553,0,1,0.447,1,1S49.553,45,49,45z M49,42
	h-2c-0.553,0-1-0.447-1-1s0.447-1,1-1h2c0.553,0,1,0.447,1,1S49.553,42,49,42z M47.959,34.934c-0.004,0.004-0.006,0.011-0.01,0.015
	s-0.011,0.006-0.015,0.01C46.667,36.219,44.923,37,43,37s-3.667-0.781-4.934-2.041c-0.005-0.004-0.011-0.006-0.015-0.01
	s-0.006-0.011-0.01-0.015C36.781,33.667,36,31.923,36,30s0.781-3.667,2.041-4.934c0.004-0.004,0.006-0.011,0.01-0.015
	s0.011-0.006,0.015-0.01C39.333,23.781,41.077,23,43,23s3.667,0.781,4.934,2.041c0.005,0.004,0.011,0.006,0.015,0.01
	s0.006,0.011,0.01,0.015C49.219,26.333,50,28.077,50,30S49.219,33.667,47.959,34.934z"/>
<g>
</g>
<g>
</g>
<g>
</g>
<g>
</g>
<g>
</g>
<g>
</g>
<g>
</g>
<g>
</g>
<g>
</g>
<g>
</g>
<g>
</g>
<g>
</g>
<g>
</g>
<g>
</g>
<g>
</g>
</svg>
