<?xml version="1.0" encoding="iso-8859-1"?>
<!-- Generator: Adobe Illustrator 18.1.1, SVG Export Plug-In . SVG Version: 6.00 Build 0)  -->
<svg version="1.1" id="Capa_1" xmlns="http://www.w3.org/2000/svg" xmlns:xlink="http://www.w3.org/1999/xlink" x="0px" y="0px"
	 viewBox="0 0 19.134 19.134" style="enable-background:new 0 0 19.134 19.134;" xml:space="preserve">
<g>
	<path style="fill:#030104;" d="M15.366,1.402l-0.073-0.011c-0.157-0.021-0.48-0.044-0.896,0.021C14.216,0.567,13.887,0,13.509,0
		c-0.499,0-0.914,0.988-1.01,2.301c-0.876,0.732-1.754,2.023-2.317,4.286c-0.351,1.41-1.01,2.343-1.958,2.771
		C7.639,9.624,6.933,9.704,6.129,9.597C5.018,9.45,4.109,8.991,4.095,8.983C3.848,8.86,3.531,8.962,3.403,9.207
		C3.273,9.459,3.372,9.77,3.625,9.901c0.11,0.057,1.112,0.556,2.361,0.722c0.996,0.132,1.891,0.023,2.66-0.323
		c1.251-0.564,2.104-1.73,2.537-3.464c0.352-1.412,0.815-2.378,1.302-3.041l0.107,2.026l0.633,12.025c0,0.285,0,1.288,0.285,1.288
		c0.284,0,0.284-1.003,0.284-1.288l0.633-12.021l0.113-2.149c0-0.035,0-0.561,0-0.804c0-0.156-0.005-0.309-0.015-0.459
		c0.257-0.039,0.457-0.027,0.559-0.014c0.035,0.005,0.06,0.01,0.116,0.021c0.267,0.035,0.514-0.133,0.575-0.393
		C15.84,1.749,15.667,1.471,15.366,1.402z M13.52,1.119c0.165,0,0.314,0.151,0.424,0.395c-0.306,0.089-0.64,0.231-0.983,0.449
		C13.055,1.466,13.27,1.119,13.52,1.119z M14.132,2.525c0,0.777-0.273,1.407-0.612,1.407c-0.228,0-0.423-0.29-0.528-0.714
		c0.402-0.384,0.798-0.598,1.14-0.71C14.132,2.514,14.132,2.52,14.132,2.525z"/>
</g>
<g>
</g>
<g>
</g>
<g>
</g>
<g>
</g>
<g>
</g>
<g>
</g>
<g>
</g>
<g>
</g>
<g>
</g>
<g>
</g>
<g>
</g>
<g>
</g>
<g>
</g>
<g>
</g>
<g>
</g>
</svg>
