<?xml version='1.0' encoding='iso-8859-1'?>
<!DOCTYPE svg PUBLIC '-//W3C//DTD SVG 1.1//EN' 'http://www.w3.org/Graphics/SVG/1.1/DTD/svg11.dtd'>
<svg version="1.1" xmlns="http://www.w3.org/2000/svg" viewBox="0 0 297 297" xmlns:xlink="http://www.w3.org/1999/xlink" enable-background="new 0 0 297 297">
  <path d="m287.116,24.462h-89.693c-5.458,0-9.884,4.425-9.884,9.884 0,21.527-17.513,39.04-39.04,39.04s-39.04-17.513-39.04-39.04c0-5.458-4.425-9.884-9.884-9.884h-89.691c-5.459,3.55271e-15-9.884,4.425-9.884,9.883v97.847c0,5.458 4.425,9.883 9.884,9.883h30.886v120.579c0,5.458 4.425,9.884 9.883,9.884h195.694c5.458,0 9.884-4.425 9.884-9.884v-120.578h30.886c5.458,0 9.884-4.425 9.884-9.883v-97.848c-0.001-5.458-4.426-9.883-9.885-9.883zm-216.83,30.553c-3.127-0.203-5.821-2.526-6.368-5.75-0.533-3.152-0.9-6.375-1.089-9.579-0.225-3.815 2.685-7.089 6.499-7.313 3.812-0.225 7.09,2.685 7.313,6.499 0.159,2.705 0.468,5.424 0.919,8.083 0.638,3.767-1.899,7.339-5.666,7.977-0.542,0.091-1.081,0.117-1.608,0.083zm19.901,183.178c0,3.821-3.097,6.919-6.918,6.919s-6.919-3.097-6.919-6.919v-4.448c0-3.821 3.097-6.918 6.919-6.918s6.918,3.097 6.918,6.918v4.448zm0-33.844c0,3.821-3.097,6.919-6.918,6.919s-6.919-3.097-6.919-6.919v-8.535c0-3.821 3.097-6.918 6.919-6.918s6.918,3.097 6.918,6.918v8.535zm0-37.932c0,3.821-3.097,6.919-6.918,6.919s-6.919-3.097-6.919-6.919v-8.534c0-3.821 3.097-6.919 6.919-6.919s6.918,3.097 6.918,6.919v8.534zm0-37.931c0,3.821-3.097,6.918-6.918,6.918s-6.919-3.097-6.919-6.918v-4.448c0-3.821 3.097-6.919 6.919-6.919s6.918,3.097 6.918,6.919v4.448zm.414-39.016c-1.383,1.06-3.04,1.517-4.652,1.412-1.923-0.125-3.784-1.047-5.047-2.697-1.951-2.546-3.781-5.223-5.439-7.959-1.981-3.267-0.938-7.522 2.329-9.503 3.266-1.979 7.521-0.939 9.503,2.329 1.399,2.308 2.944,4.568 4.591,6.718 2.324,3.034 1.749,7.376-1.285,9.7zm32.62,21.89c-1.234,2.671-3.958,4.182-6.729,4.002-0.826-0.054-1.657-0.257-2.454-0.626-2.906-1.343-5.773-2.865-8.522-4.521-3.273-1.972-4.327-6.225-2.355-9.497 1.974-3.273 6.228-4.325 9.497-2.355 2.319,1.398 4.736,2.681 7.187,3.814 3.468,1.603 4.981,5.714 3.376,9.183zm32.511,11.397c-3.186,0.162-6.426,0.151-9.631-0.032-0.017-0.001-0.036-0.002-0.054-0.004-3.788-0.246-6.675-3.502-6.459-7.299 0.218-3.814 3.487-6.73 7.302-6.513 2.71,0.154 5.449,0.164 8.14,0.028 3.826-0.196 7.068,2.743 7.26,6.558 0.194,3.818-2.742,7.068-6.558,7.262zm40.639-12.319c-2.756,1.643-5.628,3.15-8.538,4.478-1.076,0.491-2.212,0.683-3.316,0.612-2.46-0.16-4.755-1.631-5.851-4.031-1.587-3.476-0.056-7.58 3.42-9.167 2.453-1.12 4.876-2.391 7.202-3.777 3.28-1.958 7.527-0.884 9.484,2.401 1.957,3.281 0.882,7.527-2.401,9.484zm24.279,127.755c0,3.821-3.097,6.919-6.919,6.919s-6.919-3.097-6.919-6.919v-4.448c0-3.821 3.097-6.918 6.919-6.918s6.919,3.097 6.919,6.918v4.448zm0-33.844c0,3.821-3.097,6.919-6.919,6.919s-6.919-3.097-6.919-6.919v-8.535c0-3.821 3.097-6.918 6.919-6.918s6.919,3.097 6.919,6.918v8.535zm0-37.932c0,3.821-3.097,6.919-6.919,6.919s-6.919-3.097-6.919-6.919v-8.534c0-3.821 3.097-6.919 6.919-6.919s6.919,3.097 6.919,6.919v8.534zm0-37.931c0,3.821-3.097,6.918-6.919,6.918s-6.919-3.097-6.919-6.918v-4.448c0-3.821 3.097-6.919 6.919-6.919s6.919,3.097 6.919,6.919v4.448zm5.939-47.871c-1.675,2.732-3.521,5.402-5.484,7.935-1.463,1.887-3.708,2.81-5.923,2.667-1.33-0.086-2.651-0.558-3.784-1.436-3.021-2.341-3.571-6.687-1.231-9.707 1.656-2.138 3.213-4.39 4.628-6.694 1.998-3.258 6.259-4.279 9.514-2.279 3.258,1.998 4.278,6.258 2.28,9.514zm12.822-40.481c-0.207,3.199-0.59,6.416-1.138,9.564-0.612,3.514-3.775,5.944-7.255,5.719-0.248-0.016-0.497-0.046-0.748-0.089-3.763-0.655-6.285-4.239-5.63-8.003 0.464-2.66 0.787-5.38 0.962-8.085 0.247-3.813 3.538-6.704 7.352-6.456 3.813,0.246 6.704,3.537 6.457,7.35z"/>
</svg>
