<?xml version="1.0" encoding="iso-8859-1"?>
<!-- Generator: Adobe Illustrator 19.0.0, SVG Export Plug-In . SVG Version: 6.00 Build 0)  -->
<svg version="1.1" id="Capa_1" xmlns="http://www.w3.org/2000/svg" xmlns:xlink="http://www.w3.org/1999/xlink" x="0px" y="0px"
	 viewBox="0 0 511.001 511.001" style="enable-background:new 0 0 511.001 511.001;" xml:space="preserve">
<path d="M431.5,0C414.131,0,400,14.131,400,31.5c0,8.241,3.185,15.75,8.384,21.369L255.5,284.155L102.617,52.869
	C107.815,47.25,111,39.741,111,31.5C111,14.131,96.87,0,79.5,0S48,14.131,48,31.5S62.131,63,79.5,63
	c3.723,0,7.294-0.653,10.612-1.844L246.51,297.756L113.244,499.364c-2.284,3.456-1.334,8.108,2.121,10.393
	c1.273,0.841,2.709,1.244,4.129,1.244c2.434,0,4.821-1.183,6.264-3.365L255.5,311.357l129.743,196.278
	c1.443,2.183,3.83,3.365,6.264,3.365c1.42,0,2.856-0.403,4.129-1.244c3.456-2.284,4.405-6.937,2.121-10.393L264.491,297.756
	L420.888,61.156C424.206,62.347,427.778,63,431.5,63C448.87,63,463,48.869,463,31.5S448.87,0,431.5,0z M63,31.5
	C63,22.402,70.402,15,79.5,15S96,22.402,96,31.5S88.599,48,79.5,48S63,40.598,63,31.5z M431.5,48c-9.098,0-16.5-7.402-16.5-16.5
	S422.402,15,431.5,15S448,22.402,448,31.5S440.599,48,431.5,48z"/>
<g>
</g>
<g>
</g>
<g>
</g>
<g>
</g>
<g>
</g>
<g>
</g>
<g>
</g>
<g>
</g>
<g>
</g>
<g>
</g>
<g>
</g>
<g>
</g>
<g>
</g>
<g>
</g>
<g>
</g>
</svg>
