<?xml version='1.0' encoding='iso-8859-1'?>
<!DOCTYPE svg PUBLIC '-//W3C//DTD SVG 1.1//EN' 'http://www.w3.org/Graphics/SVG/1.1/DTD/svg11.dtd'>
<svg version="1.1" xmlns="http://www.w3.org/2000/svg" viewBox="0 0 473.76 473.76" xmlns:xlink="http://www.w3.org/1999/xlink" enable-background="new 0 0 473.76 473.76">
  <path d="m400.556,427.385v-187.364l21.265-30.678c2.12-3.058 2.366-7.039 0.641-10.335-1.726-3.296-5.139-5.362-8.859-5.362h-135.557l-9.452-127.029c-0.458-6.133-2.241-11.93-5.288-17.209-7.214-12.575-20.708-20.386-35.213-20.386h-13.168v-19.022c0-5.523-4.477-10-10-10h-67.157c-5.523,0-10,4.477-10,10v19.023h-13.175c-11.843,0-23.065,5.154-30.773,14.123-5.713,6.615-9.074,14.734-9.718,23.472l-23.832,320.145c-0.995,13.359 4.658,26.34 15.12,34.723 7.165,5.743 16.175,8.905 25.372,8.905h37.006v19.021c0,5.523 4.477,10 10,10h67.157c5.523,0 10-4.477 10-10v-19.021h19.39l-19.181,27.672c-2.12,3.058-2.366,7.039-0.641,10.335 1.726,3.296 5.139,5.362 8.859,5.362h190.249c3.721,0 7.133-2.065 8.859-5.362 1.726-3.296 1.479-7.278-0.641-10.335l-21.263-30.678zm-252.789-407.385h47.157v9.022h-47.157v-9.022zm-13.533,390.391l102.164-22.072v22.072h-102.164zm-64.019-22.141l.305-4.104 165.878-36.716v20.427l-161.614,34.917c-3.287-4.046-4.964-9.225-4.569-14.524zm178.161-322.284c0.126,0.703 0.22,1.416 0.274,2.139l1.268,17.037-97.181,20.998-45.147-9.755 140.786-30.419zm3.04,39.314l1.677,22.544-53.007-11.453 51.33-11.091zm3.224,43.339l1.475,19.828-166.855-36.052 1.429-19.201 163.951,35.425zm-30.797,73.29l12.555,18.113v4.098l-152.995-33.049 1.429-19.2 139.011,30.038zm156.713,166.333h-124.158v-12.27h124.158v12.27zm-0-32.269h-124.158v-12.27h124.158v12.27zm-0-32.27h-124.158v-12.27h124.158v12.27zm-0-32.269h-124.158v-12.27h124.158v12.27zm-0-32.27h-124.158v-12.27h124.158v12.27zm-144.158,5.417v19.513l-155.922-33.691 1.429-19.194 154.493,33.372zm0,39.974v19.516l-158.852-34.32 1.43-19.21 157.422,34.014zm-131.017,11.671l-30.292,6.543 .959-12.881 29.333,6.338zm-31.84,27.339l79.198-17.107 43.452,9.388-124.121,27.473 1.471-19.754zm182.857,64.677h124.158v12.27h-124.158v-12.27zm128.922-181.348h-133.686l-9.183-13.247h152.051l-9.182,13.247zm-161.968-33.247c-3.721,0-7.133,2.065-8.859,5.362-0.065,0.124-0.108,0.256-0.168,0.382l-127.994-27.658 1.429-19.201 169.902,36.71 .328,4.404h-34.638zm-124.38-137.446c3.92-4.561 9.613-7.177 15.621-7.177h113.501c1.002,0 1.992,0.08 2.968,0.223l-137.83,29.78 .813-10.928c0.328-4.431 2.026-8.539 4.927-11.898zm95.953,383.212h-47.157v-9.021h47.157v9.021zm47.526,14.348l9.183-13.248h133.686l9.183,13.248h-152.052z"/>
</svg>
