<?xml version='1.0' encoding='iso-8859-1'?>
<!DOCTYPE svg PUBLIC '-//W3C//DTD SVG 1.1//EN' 'http://www.w3.org/Graphics/SVG/1.1/DTD/svg11.dtd'>
<svg version="1.1" xmlns="http://www.w3.org/2000/svg" viewBox="0 0 297 297" xmlns:xlink="http://www.w3.org/1999/xlink" enable-background="new 0 0 297 297">
  <g>
    <path d="m35.719,291.467c0,3.051 2.482,5.533 5.531,5.533h85.119c3.051,0 5.533-2.482 5.533-5.533v-5.64h-96.183v5.64z"/>
    <path d="m113.441,48.091v-5.639c0-3.051-2.482-5.533-5.532-5.533h-48.2c-3.051,0-5.533,2.482-5.533,5.533v5.639 0.001l59.265-.001z"/>
    <path d="m164.935,291.467c0,3.051 2.482,5.533 5.533,5.533h85.118c3.051,0 5.533-2.482 5.533-5.533v-5.64h-96.183v5.64z"/>
    <path d="m242.658,5.532c0-3.051-2.482-5.532-5.532-5.532h-48.2c-3.05,0-5.532,2.482-5.532,5.532v5.64h59.263v-5.64z"/>
    <path d="m278.614,264.503l-16.628-232.794c-0.205-2.881-2.629-5.138-5.517-5.138h-86.885c-2.888,0-5.312,2.257-5.517,5.137l-16.628,232.795c-0.111,1.548 0.411,3.028 1.469,4.164 1.057,1.136 2.496,1.762 4.048,1.762h120.141c1.552,0 2.991-0.626 4.048-1.762 1.059-1.136 1.58-2.615 1.469-4.164z"/>
    <path d="m132.901,270.429l7.499-111.945-7.493-89.922c-0.237-2.844-2.658-5.072-5.513-5.072h-87.168c-2.854,0-5.275,2.229-5.513,5.073l-16.322,195.874c-0.13,1.561 0.382,3.054 1.442,4.206 1.06,1.152 2.506,1.786 4.072,1.786h108.996z"/>
  </g>
</svg>
