<?xml version='1.0' encoding='iso-8859-1'?>
<!DOCTYPE svg PUBLIC '-//W3C//DTD SVG 1.1//EN' 'http://www.w3.org/Graphics/SVG/1.1/DTD/svg11.dtd'>
<svg version="1.1" xmlns="http://www.w3.org/2000/svg" viewBox="0 0 297 297" xmlns:xlink="http://www.w3.org/1999/xlink" enable-background="new 0 0 297 297">
  <g>
    <path d="M183.497,4.347c0-2.397-1.95-4.347-4.347-4.347h-61.3c-2.396,0-4.346,1.95-4.346,4.347v14.446h69.994V4.347z"/>
    <path d="m113.503,292.653c0,2.397 1.95,4.347 4.346,4.347h61.3c2.397,0 4.347-1.95 4.347-4.347v-14.447h-69.994v14.447z"/>
    <polygon points="180.419,180.022 226.061,157.201 226.061,118.376 147.758,161.877  "/>
    <polygon points="132.175,153.22 226.061,100.871 226.061,64.657 99.412,135.018  "/>
    <polygon points="70.939,226.212 137.522,263.073 204.775,263.073 70.939,188.719  "/>
    <polygon points="70.939,171.407 226.061,257.586 226.061,222.949 70.939,136.523  "/>
    <path d="M75.821,33.927c-2.692,0-4.881,2.189-4.881,4.881v34.366l70.646-39.248H75.821z"/>
    <path d="m70.939,258.191c0,2.692 2.189,4.881 4.881,4.881h30.296l-35.177-19.542v14.661z"/>
    <polygon points="226.061,205.378 226.061,174.12 196.448,188.927  "/>
    <path d="m221.179,33.927h-48.435l-101.805,56.413v28.86l12.891,7.162 142.23-79.017v-8.535c0.001-2.693-2.189-4.883-4.881-4.883z"/>
  </g>
</svg>
