<?xml version="1.0" encoding="iso-8859-1"?>
<!-- Generator: Adobe Illustrator 18.1.1, SVG Export Plug-In . SVG Version: 6.00 Build 0)  -->
<svg version="1.1" id="Capa_1" xmlns="http://www.w3.org/2000/svg" xmlns:xlink="http://www.w3.org/1999/xlink" x="0px" y="0px"
	 viewBox="0 0 324.281 324.281" style="enable-background:new 0 0 324.281 324.281;" xml:space="preserve">
<g>
	<g>
		<path style="fill:#010002;" d="M202.432,179.579c-13.032,0-23.635,10.597-23.635,23.629s10.603,23.635,23.635,23.635
			s23.635-10.603,23.635-23.635S215.464,179.579,202.432,179.579z"/>
		<path style="fill:#010002;" d="M121.849,98.221c-13.032,0-23.635,10.597-23.635,23.629c0,13.032,10.603,23.635,23.635,23.635
			c13.038,0,23.635-10.603,23.635-23.635S134.887,98.221,121.849,98.221z"/>
		<path style="fill:#010002;" d="M162.138,42.896c-65.755,0-119.248,53.493-119.248,119.248c0,65.749,53.493,119.23,119.248,119.23
			c65.761,0,119.254-53.487,119.254-119.23C281.392,96.389,227.893,42.896,162.138,42.896z M121.849,157.418
			c-19.613,0-35.569-15.955-35.569-35.569c0-19.607,15.955-35.563,35.569-35.563s35.568,15.955,35.568,35.563
			C157.418,141.463,141.463,157.418,121.849,157.418z M202.432,238.776c-19.613,0-35.568-15.955-35.568-35.568
			c0-19.607,15.955-35.563,35.568-35.563s35.569,15.955,35.569,35.563C238.001,222.821,222.051,238.776,202.432,238.776z"/>
		<path style="fill:#010002;" d="M162.138,0C72.736,0,0,72.736,0,162.144s72.736,162.138,162.138,162.138
			s162.144-72.73,162.144-162.138S251.539,0,162.138,0z M162.138,293.307c-72.336,0-131.182-58.839-131.182-131.164
			c0-72.336,58.851-131.182,131.182-131.182c72.336,0,131.188,58.845,131.188,131.182
			C293.325,234.468,234.474,293.307,162.138,293.307z"/>
	</g>
</g>
<g>
</g>
<g>
</g>
<g>
</g>
<g>
</g>
<g>
</g>
<g>
</g>
<g>
</g>
<g>
</g>
<g>
</g>
<g>
</g>
<g>
</g>
<g>
</g>
<g>
</g>
<g>
</g>
<g>
</g>
</svg>
