<?xml version='1.0' encoding='iso-8859-1'?>
<!DOCTYPE svg PUBLIC '-//W3C//DTD SVG 1.1//EN' 'http://www.w3.org/Graphics/SVG/1.1/DTD/svg11.dtd'>
<svg version="1.1" xmlns="http://www.w3.org/2000/svg" viewBox="0 0 467.62 467.62" xmlns:xlink="http://www.w3.org/1999/xlink" enable-background="new 0 0 467.62 467.62">
  <path d="m459.72,220.409c5.663-12.119 8.305-25.104 7.85-38.589-0.719-21.709-9.73-42.121-25.375-57.475-15.641-15.351-36.218-23.984-57.941-24.311-29.963-0.459-57.506,14.693-73.177,39.878h-154.535c-15.662-25.184-43.148-40.324-73.18-39.878-21.723,0.327-42.299,8.961-57.939,24.313-15.645,15.356-24.657,35.771-25.375,57.486-0.444,13.475 2.195,26.451 7.845,38.566 3.972,8.523 3.972,18.299 0.001,26.819-5.65,12.118-8.29,25.098-7.846,38.584 0.724,21.709 9.737,42.12 25.38,57.472 15.642,15.351 36.22,23.984 57.946,24.311 0.438,0.006 0.874,0.01 1.312,0.01 30.055,0 57.243-15.495 72.551-41.024h153.144c15.309,25.531 42.499,41.024 72.562,41.024 0.436,0 0.876-0.003 1.313-0.01 21.722-0.327 42.299-8.96 57.939-24.311 15.645-15.354 24.656-35.766 25.375-57.469 0.455-13.491-2.186-26.476-7.846-38.586-3.972-8.521-3.972-18.297-0.004-26.81zm-12.12,60.856c-52.206,13.299-105.387-22.333-119.499-32.777v-17.606c7.154,4.59 16.363,9.939 27.081,14.918 23.531,10.932 46.735,16.473 68.461,16.473 6.824,0 13.497-0.56 19.994-1.658 2.447,6.611 3.792,13.52 3.963,20.65zm0-94.91c-0.171,7.125-1.515,14.032-3.962,20.644-33.972-5.785-66.653,4.481-90.069,15.582-6.391-3.409-11.948-6.797-16.448-9.738 21.225-13.915 66.097-37.796 110.479-26.488zm-10.286,55.015c-20.664,2.849-41.065-1.217-58.722-7.593 24.203-8.716 43.952-9.521 58.72-7.511-0.742,5.009-0.741,10.094 0.002,15.104zm-129.213,65.201h-15.906v-146.659h15.906v146.659zm47.081-126.655c-10.718,4.979-19.927,10.328-27.081,14.918v-17.608c12.633-9.356 56.581-38.918 103.088-35.433 6.145,6.88 10.692,14.862 13.422,23.466-27.425-4.882-58.137,0.119-89.429,14.657zm28.772-59.884c6.423,0.097 12.713,1.16 18.71,3.095-31.159,4.807-58.22,19.245-74.563,29.76v-2.477c11.982-19.186 32.986-30.714 55.853-30.378zm-363.934,66.323c52.208-13.299 105.39,22.337 119.499,32.779v17.606c-7.155-4.59-16.364-9.939-27.083-14.919-30.922-14.365-61.276-19.413-88.452-14.821-2.444-6.613-3.788-13.521-3.964-20.645zm10.283,39.897c20.666-2.849 41.068,1.216 58.724,7.592-24.205,8.717-43.955,9.521-58.722,7.512 0.741-5.01 0.741-10.095-0.002-15.104zm-10.282,55.015c0.176-7.125 1.52-14.033 3.963-20.645 6.751,1.149 13.452,1.68 20.039,1.68 26.557,0 51.264-8.369 70.026-17.263 6.38,3.404 11.929,6.785 16.425,9.724-21.273,13.903-66.215,37.773-110.453,26.504zm139.498-121.355h15.906v146.659h-15.906v-146.659zm-75.859-39.88c22.878-0.335 43.878,11.194 55.858,30.383v2.473c-16.343-10.515-43.403-24.954-74.564-29.761 5.996-1.936 12.285-2.999 18.706-3.095zm-47.23,21.76c46.512-3.488 90.459,26.079 103.089,35.435v17.61c-7.155-4.59-16.364-9.939-27.083-14.919-31.291-14.537-62.003-19.541-89.428-14.658 2.73-8.605 7.277-16.588 13.422-23.468zm-13.424,160.559c6.802,1.211 13.802,1.828 20.969,1.828 21.724,0 44.932-5.542 68.461-16.473 10.719-4.98 19.928-10.329 27.083-14.919v17.608c-12.63,9.355-56.577,38.918-103.083,35.436-6.149-6.884-10.698-14.872-13.43-23.48zm60.668,45.237c-6.422-0.097-12.712-1.159-18.708-3.094 31.154-4.807 58.212-19.245 74.553-29.758v1.835c0,0.195 0.018,0.385 0.029,0.578-11.968,19.246-32.9,30.769-55.874,30.439zm111.751-41.017v-146.659h76.77v146.659h-76.77zm188.53,41.017c-0.336,0.005-0.669,0.007-1.003,0.007-22.609,0-43.09-11.477-54.881-30.442 0.011-0.194 0.029-0.386 0.029-0.582v-1.833c16.341,10.514 43.4,24.951 74.555,29.757-5.993,1.935-12.28,2.996-18.7,3.093zm47.232-21.758c-46.501,3.486-90.453-26.078-103.086-35.434v-17.609c7.154,4.59 16.363,9.939 27.081,14.918 23.531,10.932 46.735,16.473 68.46,16.473 7.168,0 14.17-0.617 20.974-1.829-2.731,8.609-7.28,16.597-13.429,23.481z"/>
</svg>
